<svg width="115" height="30" viewBox="0 0 115 30" fill="none" xmlns="http://www.w3.org/2000/svg">
<rect width="115" height="30" fill="#1E1E1E"/>
<g id="Homepage">
<rect width="1440" height="8546" transform="translate(-90 -1415)" fill="black"/>
<g id="div.framer-qpoM0" clip-path="url(#clip0_0_1)">
<rect width="1440" height="8546" transform="translate(-90 -1415)" fill="black"/>
<g id="div.framer-nuuxpt">
<g id="Frame 23">
<g id="List">
<g id="19SjVvXyK86mwyu7VXsBdfOimw.svg" clip-path="url(#clip1_0_1)">
<path id="Vector" fill-rule="evenodd" clip-rule="evenodd" d="M1.03417 8.81075C1.89541 8.81075 2.49475 8.9929 2.86745 9.36477C3.28464 9.78195 3.47183 10.4694 3.47183 11.5951V25.6553C3.47183 27.6011 3.06304 28.469 0.653072 28.469H0.323181V29.332H11.1516V28.4732L10.8251 28.469C8.43865 28.4405 8.03574 27.5776 8.03574 25.6553V11.5951C8.03574 10.472 8.22209 9.78699 8.63844 9.37148C9.01449 8.99374 9.62559 8.80991 10.5045 8.80991H11.1508V7.93524H0.323181V8.80991H1.03501V8.81075H1.03417ZM35.6685 22.16C35.6685 22.16 35.4804 21.282 35.4536 20.7909V14.3694C35.4116 10.6239 35.922 8.75955 32.6449 8.77382V7.93272H40.1845V8.77382C36.8092 8.76039 37.234 10.6247 37.2147 14.3694V29.3647L36.1411 29.3529L19.8589 12.3321C19.8589 12.3321 20.0419 13.2085 20.0688 13.7003V24.2166C19.9773 28.0527 20.4524 28.516 22.927 28.4716V29.3479H15.0667V28.4716C17.5438 28.4741 18.0307 28.145 18.0281 23.9035V24.157V13.7944L18.008 12.1491C18.1003 10.0195 17.313 8.78473 14.9106 8.80487V7.9621H22.1463L35.6685 22.16ZM62.9621 7.52393H62.1311L62.0933 7.80765C62.0362 8.23239 61.8692 8.94254 61.3848 8.94254C61.2472 8.94254 60.903 8.8779 60.516 8.70079C58.8322 7.97217 56.6514 7.52393 54.8156 7.52393C51.2422 7.52393 48.0012 8.80236 45.6861 11.125C43.5598 13.2588 42.3956 16.164 42.4123 19.3035C42.4275 22.3102 43.611 24.784 46.0336 26.8683C48.4738 28.9542 51.2077 29.844 55.1815 29.844C58.4914 29.844 60.3859 29.3689 63.2945 27.8093L63.8032 27.5339V21.9233C63.8032 19.5318 64.097 19.1599 66.0444 19.081L66.3609 19.0693V18.2357H56.8453V19.0693L57.1617 19.081C59.3316 19.1649 59.7412 19.5536 59.7412 21.5313V26.7306C58.1321 27.7908 56.9619 28.1937 55.4871 28.1937C53.3046 28.1937 51.3614 27.3509 49.8697 25.8626C48.1229 24.1167 47.2709 21.5732 47.2709 18.6982C47.2709 15.6016 48.096 12.9608 49.7958 11.2635C51.1498 9.91206 52.947 9.16079 54.9977 9.16079C56.8293 9.16079 58.9572 9.94564 60.417 11.1024C61.6039 12.0727 62.2192 13.012 62.6842 14.5641L62.7547 14.7991H63.5673L62.9621 7.52393Z" fill="#EAEAEA"/>
<path id="Vector_2" fill-rule="evenodd" clip-rule="evenodd" d="M104.642 29.2732C105.171 29.1934 105.732 29.206 106.154 28.8182C107.941 29.0927 109.754 28.6512 111.159 27.6682C111.897 27.0774 112.552 26.3892 113.105 25.6226C113.581 24.9569 113.955 24.3366 114.198 23.5912C114.378 23.1312 114.522 22.6519 114.629 22.1608C115.139 19.844 114.871 17.2527 114.116 15.0493C113.978 14.6396 113.82 14.2434 113.649 13.8657C112.706 11.9199 111.423 9.82055 109.448 8.58996C108.336 7.8966 107.312 6.82467 106.683 5.71496C106.341 5.40773 106.014 5.00146 105.572 4.92675C105.693 5.12653 105.826 5.32127 105.859 5.55463L105.833 5.58737C105.364 5.6008 104.997 5.35233 104.675 5.05266L105.029 4.73201C104.896 4.66485 104.742 4.63883 104.595 4.60441C103.244 4.4508 102.133 5.07365 100.935 5.37332L100.915 5.44047C101.652 5.76784 101.805 6.57704 102.233 7.12518C102.339 6.99759 102.52 7.09076 102.668 7.07901C102.882 7.0916 103.083 7.24522 103.29 7.19149C103.297 7.0127 103.196 6.87084 103.163 6.71051C103.29 6.65091 103.444 6.70379 103.586 6.71051C103.973 6.93715 104.595 6.67022 104.836 7.19149C104.394 7.21919 103.979 7.31237 103.565 7.4131C103.592 7.58014 103.759 7.71277 103.746 7.88065C103.386 7.73369 103.008 7.63736 102.621 7.59441L102.601 7.65317C103.103 8.24076 103.792 8.58996 104.496 8.79646C105.506 9.02981 106.396 8.54883 107.371 8.71587C109.769 9.81299 111.815 12.3203 112.706 14.7009C112.75 14.8151 112.792 14.9301 112.831 15.0484C113.576 17.2225 113.718 19.8927 112.971 22.16C112.573 23.1026 112.136 23.9932 111.434 24.7596C111.176 25.0802 110.882 25.3698 110.557 25.6226C109.552 26.4032 108.314 26.7482 107.037 26.399C106.957 26.3436 106.796 26.3302 106.823 26.1908C107.133 24.9017 107.259 23.5751 107.198 22.2506C107.197 22.2016 107.195 22.1527 107.193 22.1037C107.123 20.4442 106.792 18.9534 106.182 17.518C105.79 16.6954 105.326 15.7972 104.74 14.9913C104.041 14.0302 103.173 13.2009 102.059 12.7862C101.376 12.6057 100.534 12.5713 100.018 13.1388C99.6505 13.4611 99.4968 13.8942 99.5497 14.3702C98.9747 14.7345 98.3275 14.9309 97.6233 14.9913C97.4512 15.0065 97.2741 15.0694 97.0944 15.0669C96.9249 15.0753 96.7587 15.0686 96.5958 15.0484C95.748 14.9435 94.891 14.486 94.2396 13.9656C94.2261 13.6172 94.206 13.2907 94.1926 12.923C93.819 12.7291 93.5093 12.3606 93.4841 11.9258L93.5168 11.8931C93.7317 11.9602 93.9181 12.066 94.112 12.1793C94.0247 11.6589 93.924 11.1443 93.6646 10.6893C93.4228 10.5886 93.1819 10.508 92.9553 10.3872C92.6942 10.2151 92.5263 9.90029 92.4877 9.61321C92.7219 9.83985 93.129 9.76011 93.3103 10.0002C92.9947 9.07095 92.9897 8.00825 92.4734 7.15876C92.2124 6.53171 91.5299 6.24379 91.0615 5.78211C90.8802 5.56135 90.8072 5.25412 90.4798 5.21971C90.2121 5.15339 90.1919 4.85372 90.1457 4.65814C90.3119 4.67828 90.4521 4.79244 90.5923 4.81846C90.2045 3.79102 89.8629 2.64606 88.8136 1.99131L88.6331 2.10547C88.2181 2.16208 87.8003 2.19571 87.3815 2.2062C87.5629 1.93927 87.8827 1.82511 88.1379 1.70339C87.8432 1.48346 87.6006 1.43058 87.2321 1.37098C87.0189 1.58336 86.6319 1.69164 86.3575 1.75124L86.323 1.72438C86.3155 1.48346 86.2618 1.18967 86.6236 1.12923C86.276 0.962187 85.6985 1.03018 85.3443 1.12923C85.2444 1.38945 84.9573 1.62449 84.9783 1.93255C84.771 2.1466 84.6241 2.43452 84.4083 2.5873C84.4025 2.07273 84.6215 1.59846 84.7156 1.16449C84.4142 1.27781 84.1087 1.43898 83.8132 1.57832C83.3389 1.30467 82.8386 1.03102 82.3299 0.822844C82.2846 0.802698 82.183 0.783392 82.2032 0.869852C82.638 1.18379 82.4693 1.77306 82.5163 2.21963L82.2418 1.99299C82.1075 1.65219 81.7214 1.4054 81.6551 1.03102C81.2001 1.11832 80.908 1.23752 80.4866 1.41883L80.4287 1.45241C80.7426 1.45241 81.0104 1.69836 81.164 1.94766C80.6889 1.97284 80.2675 1.78649 79.7991 1.73865C79.7529 1.69332 79.7118 1.63792 79.6379 1.64547C79.4046 1.73193 79.2023 1.89898 78.9966 2.0593C78.5349 2.51427 78.0657 3.01624 77.8458 3.6181C78.0002 3.64328 78.1941 3.63741 78.3075 3.73058C78.054 3.88419 77.8324 4.14609 77.5856 4.29215C77.4983 4.63967 77.5117 5.03587 77.4907 5.41529C77.2968 5.71076 77.0357 5.9693 76.9098 6.29919C76.4943 7.64058 76.3877 9.13306 76.4482 10.6558C76.3138 10.7842 76.1384 10.8648 76.0133 10.9647L76.0268 12.3279H76.0595C76.1191 12.0408 76.4616 11.8813 76.6689 11.6866H76.7361C76.7025 11.9938 76.6622 12.3019 76.6555 12.6158L76.2685 12.9373C75.879 13.2781 76.2072 13.7927 76.1745 14.2216C76.2014 14.3332 76.2207 14.5011 76.3004 14.528C76.3483 14.3609 76.4952 14.2409 76.5892 14.0932C76.7554 14.0537 76.9031 13.9194 77.0567 13.9001C76.9691 14.2351 76.8574 14.5633 76.7226 14.8822C76.658 14.9242 76.5825 14.9813 76.5187 15.0501C76.4491 15.1168 76.4009 15.2027 76.3802 15.2969C76.6823 16.88 77.1566 18.4447 77.698 19.9355C77.3304 20.5567 77.1222 21.2895 76.8167 21.9316C76.7713 22.0206 76.7327 22.113 76.6958 22.2061C76.3886 22.9826 76.2945 23.8522 75.9118 24.5985C75.7557 24.4955 75.5898 24.4084 75.4165 24.3382C74.6938 24.0973 73.8569 24.2509 73.3297 24.8066C72.8597 24.7193 72.3787 24.7991 72.0102 25.0476C71.7547 25.2286 71.5526 25.4751 71.4251 25.7611C71.3429 25.9629 71.3073 26.1807 71.321 26.3982C71.0205 26.6047 70.8593 26.9245 70.7594 27.246C70.6192 27.9679 70.8736 28.7192 71.2883 29.2749H104.642V29.2732Z" fill="black"/>
<path id="Vector_3" fill-rule="evenodd" clip-rule="evenodd" d="M100.212 14.2434C100.204 14.4172 100.079 14.6128 100.192 14.7588C100.353 14.5783 100.621 14.5842 100.835 14.5053C101.429 14.4516 101.998 14.6379 102.553 14.7731C102.414 14.5515 102.32 14.3055 102.166 14.1041C101.857 14.0243 101.39 14.2384 101.337 13.7834C101.149 13.6231 100.853 13.7381 100.661 13.7498C100.473 13.8841 100.319 14.0503 100.212 14.2434ZM79.7613 8.47243C79.7585 8.46976 79.755 8.46775 79.7513 8.46655L79.7529 8.47327L79.7613 8.47243ZM82.1931 14.4138L82.5952 14.0277C82.6288 14.0277 82.6556 14.0344 82.675 14.0613L82.6414 14.8025C82.8353 14.9829 83.0762 15.0434 83.3297 15.0568C83.3507 14.8562 83.5051 14.716 83.5924 14.5422C83.6655 14.4021 83.6193 14.1939 83.7654 14.0932L83.8115 14.1402C83.8594 14.3601 83.8468 14.6086 83.9601 14.8016C83.9735 14.9082 83.9928 15.0425 84.0063 15.1357C84.3009 15.1508 84.567 15.0686 84.7953 14.9628C84.7819 14.7093 84.87 14.5011 84.9086 14.2669C84.9699 14.1863 84.8348 14.0403 85.0027 14.047C85.0967 14.2468 85.2637 14.4541 85.3577 14.6682C85.7447 14.2736 85.9059 13.7591 85.9999 13.2244C85.8866 13.0699 85.712 13.0699 85.5777 12.9709C84.4411 12.6024 82.9805 12.5285 81.8834 13.0968C81.812 13.5526 81.906 14.0537 82.194 14.4147L82.1931 14.4138ZM71.5602 26.958C71.5191 27.4734 71.5602 27.957 71.5921 28.464C71.7004 28.6318 71.8943 28.8257 72.0874 28.8392L72.121 28.4975C72.2007 28.0224 71.9472 27.5179 72.215 27.1175C72.403 27.1771 72.5885 27.2712 72.7505 27.3576C72.8294 26.9161 72.717 26.4024 72.2956 26.1354L71.5602 26.958ZM73.2122 26.237C72.952 27.0185 72.7573 27.9847 73.0729 28.8064C73.2525 28.6872 73.4405 28.5731 73.6 28.406C73.5673 27.7765 73.48 27.1049 73.8544 26.5845C74.1817 26.6844 74.4042 26.9983 74.5293 27.3064C74.7509 27.0244 74.8247 26.6374 74.7374 26.2622C74.7517 25.9692 74.4151 26.0364 74.2548 25.9155C74.3093 25.6679 74.3018 25.3816 74.5637 25.2414L73.7604 25.322C73.5539 25.6141 73.3264 25.9029 73.2122 26.237ZM74.8659 28.5454C74.8994 28.6067 74.8659 28.7124 74.933 28.7259C75.0337 28.1651 75.4879 27.8008 75.7363 27.3072C75.8555 27.1394 75.8488 26.9043 76.0427 26.7784C76.3046 26.7784 76.4918 26.9656 76.747 26.9858C76.8267 27.0462 76.705 27.0982 76.6992 27.1654C76.6463 27.6203 76.4725 27.9981 76.5061 28.4648H76.5514C76.9065 28.0921 77.1474 27.6867 77.4076 27.2586L77.4538 26.8783C77.5142 26.4233 77.019 26.1304 76.6983 25.9432L76.9854 25.5747L76.5842 25.4345C76.1148 25.4733 75.6786 25.6916 75.3662 26.0439C74.959 26.791 74.8927 27.6363 74.865 28.5454H74.8659ZM76.6647 24.5775C76.8183 24.6245 76.9585 24.4977 77.1121 24.5649C77.7283 24.7915 78.3713 25.0257 78.8329 25.5403L79.3811 26.9371L79.6556 26.0758L79.4751 25.6074C79.3215 25.2725 78.8993 25.3002 78.6105 25.2868C78.4921 25.1525 78.6189 24.9989 78.6592 24.8721C78.7985 24.3978 78.2168 24.4239 77.9826 24.2316C77.9969 23.9437 77.6485 24.0436 77.4538 24.0167L77.3866 23.9362C77.348 23.8766 77.2473 23.8766 77.1936 23.9227C77.1793 23.9034 77.1533 23.8891 77.1684 23.8556L77.019 23.8891C76.8125 24.0705 76.6715 24.3038 76.6647 24.5775ZM77.05 23.0413C77.0712 23.13 77.1203 23.2095 77.1902 23.268C77.4924 23.1882 77.7795 22.9817 78.127 23.1076C78.5761 23.5022 79.0436 23.916 79.5876 24.1309L79.7806 24.0973C79.9015 24.1385 80.0342 24.1435 80.1147 24.2778C80.1894 24.4583 80.0031 24.5649 79.941 24.7118C80.2432 24.9325 80.1223 25.3271 80.3103 25.5932L80.7921 24.9527C80.6788 24.6706 80.7989 24.1905 80.3565 24.1636C80.2833 24.1287 80.2217 24.0736 80.179 24.0047C80.1363 23.9358 80.1143 23.856 80.1156 23.775C79.8293 23.5148 79.4743 23.4014 79.1855 23.1345C78.9513 22.9465 78.8111 22.6586 78.5098 22.5922C78.3033 22.4798 78.0766 22.4185 77.8357 22.3656C77.385 22.2993 77.3455 22.8332 77.05 23.0413ZM77.6964 21.7243L77.777 21.851C78.1102 21.8309 78.4132 21.684 78.7415 21.6907C78.9614 21.825 79.2493 21.8183 79.4759 21.9308C79.6573 22.1784 79.8512 22.4596 80.1173 22.6275C80.6612 22.7064 80.9617 23.2881 81.1489 23.7154V23.508C81.2286 23.2218 81.1413 22.8869 81.0339 22.6267C80.9004 22.4924 80.7065 22.4051 80.5663 22.285C80.5395 22.1986 80.5596 22.1574 80.5865 22.0777C80.3783 21.8569 80.0711 21.736 79.8176 21.5631C79.4625 21.0486 78.7801 21.1887 78.2378 21.0486L77.6964 21.7243ZM77.6846 16.8196C77.7434 17.0278 77.8173 17.2888 77.8559 17.5079C78.0439 17.0941 78.4132 16.9086 78.7406 16.5678C78.5526 16.4393 78.3192 16.3797 78.1119 16.3394V16.3268C77.965 16.4737 77.7375 16.6206 77.6846 16.8196ZM78.8993 19.0189L79.2006 18.7116C79.5028 18.4052 79.7496 18.0502 79.7966 17.6556C79.5825 17.528 79.3013 17.6145 79.094 17.6884C79.0185 18.1249 78.9068 18.5521 78.8993 19.0189ZM79.12 19.9624C79.5817 19.9892 80.03 20.0816 80.4052 19.823L80.7787 18.6185C80.6595 18.6109 80.5378 18.558 80.4253 18.5983C80.1785 19.1473 79.6816 19.6879 79.12 19.9624ZM79.2552 15.6973C79.5557 16.1388 80.0577 16.6332 80.5731 16.7726C80.5126 16.2118 80.0316 15.824 79.784 15.343L79.7697 15.1819C79.5767 14.9939 79.3416 14.8688 79.1402 14.7672C79.1083 15.0895 79.1956 15.3968 79.2552 15.6973ZM80.8862 20.0152C81.2412 20.0774 81.6223 20.0152 81.9497 19.9145C82.4256 19.802 82.6867 19.2799 82.847 18.8728H82.251L81.6089 19.5007C81.3554 19.635 81.1128 19.8364 80.8862 20.0152ZM80.8148 15.0895C80.9155 15.61 81.1346 16.0851 81.4368 16.5333L81.5174 15.537L80.8148 15.0895ZM83.0082 17.6892C83.0477 17.3551 82.9083 16.9673 82.8697 16.6274C82.6682 16.493 82.3862 16.5065 82.1797 16.3739C82.1931 16.9018 82.607 17.3484 83.0082 17.6892ZM82.3988 21.0863C82.8202 20.952 83.2281 20.8051 83.6159 20.5911C83.8627 20.2385 84.2379 19.9153 84.2908 19.5015C83.9836 19.588 83.7158 19.4889 83.4288 19.6291C83.255 19.943 83.1475 20.2981 82.8135 20.5239C82.7606 20.7506 82.5121 20.9059 82.3988 21.0863ZM83.0535 21.9081L83.5555 22.5629C83.8233 22.6502 84.1574 22.6225 84.3916 22.4689L84.2102 21.8737C83.8569 22.0089 83.4355 21.9677 83.0535 21.9081ZM83.8913 17.1747L84.0843 18.0577C84.5519 17.6766 84.6476 17.1218 84.6358 16.5333C84.3681 16.8406 84.2111 17.0286 83.8913 17.1747ZM85.2092 18.7318C85.2129 18.8566 85.2528 18.9776 85.3242 19.0801C85.8454 19.2665 85.8983 19.9019 86.381 20.142C86.6949 20.2822 87.055 20.1084 87.3304 19.9817C87.123 19.7475 86.888 19.5855 86.6882 19.3395C86.548 19.2791 86.407 19.1926 86.4137 19.0189L85.2092 18.7318ZM85.6247 21.888C85.853 22.1482 86.1602 22.2825 86.4817 22.3547C86.4288 22.2808 86.5153 22.3547 86.5287 22.3085L86.1258 21.4271C85.926 21.4322 85.7187 21.4733 85.5315 21.4607C85.5441 21.6059 85.5785 21.7528 85.6247 21.888ZM86.3331 17.769C86.1451 17.335 86.067 16.807 86.0142 16.3268C85.8127 16.5669 85.6054 16.7214 85.4182 16.9673C85.3309 17.4626 86.0385 17.5826 86.3331 17.769ZM87.1507 17.3157C87.3916 17.6296 87.9196 17.5222 88.2159 17.429C88.0741 17.1881 87.6208 17.0479 87.5411 16.7877C87.498 16.3344 87.4014 15.8878 87.2531 15.4572C87.0181 16.0255 86.736 16.7012 87.1507 17.3157ZM87.5704 18.7334C88.2411 19.2228 88.8959 19.7894 89.8327 19.5821C89.8998 19.5351 90.0131 19.5418 90.0266 19.4553C89.7521 19.2808 89.4583 19.1473 89.1771 18.9878L88.8564 18.5194H88.7095C88.3477 18.6403 87.9582 18.6856 87.5704 18.7334ZM87.5864 24.1544H87.6317C88.0346 23.8337 88.5089 23.7263 88.984 23.592C89.1116 23.639 89.031 23.7792 89.1452 23.8337C89.4331 23.7129 89.7815 23.7406 90.0752 23.6398C90.4303 23.6541 90.7182 23.66 91.0053 23.8136C91.232 24.1141 91.6609 24.0822 91.9564 24.2812L91.9094 23.8136C91.2874 23.0841 90.3162 23.0313 89.4205 23.0455L89.4004 22.9507C89.1863 22.9507 88.9462 22.9977 88.7448 23.0925C88.4577 23.1043 88.1832 23.2462 87.9079 23.3326C87.7794 23.587 87.6796 23.8933 87.5864 24.1552V24.1544ZM88.1228 15.939C88.3838 16.2807 88.7716 16.5401 89.2132 16.4536C88.9865 16.2337 88.7246 15.9986 88.7112 15.6847C88.7783 15.0895 88.1228 15.0434 87.8021 14.7345C87.9079 15.1374 87.8961 15.584 88.1228 15.939ZM88.0548 25.338H88.1328C88.4879 25.1155 89.0033 25.2834 89.3517 25.0492C89.5456 24.9485 89.5582 25.2171 89.6933 25.2901C90.0207 25.4916 90.061 26.0918 90.5227 25.9524C91.0775 26.2395 90.9373 26.9161 90.9575 27.4097L91.4729 27.0898C91.4259 26.8288 91.5728 26.5132 91.4049 26.2865C91.279 26.0003 90.9314 25.9734 90.7636 25.7384C90.965 25.3976 90.5101 25.2381 90.416 24.9905L90.4429 24.956L91.1505 25.0492C91.3931 25.197 91.4788 25.4647 91.5535 25.7124C92.1092 25.8047 92.2426 26.4334 92.4374 26.8347C92.5507 26.5602 92.5969 26.2655 92.7119 25.9994C92.7177 25.7778 92.4231 25.7778 92.277 25.6788C92.2351 25.338 92.0823 25.0156 91.7818 24.8091C91.1656 24.6555 90.6242 24.3139 89.9485 24.3139L89.3861 24.4885C89.078 24.5624 88.7506 24.4692 88.5164 24.6816C88.1673 24.7084 88.1404 25.0903 88.0548 25.338ZM88.4065 22.583L88.5341 22.6426C88.8077 22.515 89.0831 22.369 89.371 22.2615C89.8184 22.1339 90.1667 22.6426 90.542 22.322C90.6821 22.2212 90.8013 22.369 90.9096 22.4495C91.0708 22.7433 91.4452 22.7232 91.7264 22.8038C91.5862 22.4227 91.4124 21.9006 90.9231 21.8393C90.7292 21.7528 90.5017 21.7612 90.3136 21.6462C89.7991 21.0788 89.465 22.1138 88.9017 21.8603C88.702 22.0819 88.4543 22.2892 88.4065 22.583Z" fill="black"/>
<path id="Vector_4" fill-rule="evenodd" clip-rule="evenodd" d="M88.5374 25.8393C88.7506 26.0189 88.9714 26.327 89.3046 26.2867C89.7218 26.4806 89.5472 27.0279 89.7747 27.3158L90.0148 27.1018L89.9946 27.0883L90.029 27.0547L90.0433 27.0749C90.1096 26.8734 90.0156 26.5192 89.9014 26.2858C89.7478 26.1801 89.5674 26.2926 89.4205 26.1918C89.3995 25.9786 89.266 25.8712 89.1124 25.7385C89.0049 25.658 88.8648 25.7646 88.7447 25.7578L88.5374 25.8393ZM89.3726 17.6894C89.5934 18.0587 90.0215 18.2854 90.3631 18.5389C90.6426 18.6673 91.0111 18.6984 91.3125 18.6329C91.0262 18.3964 90.7621 18.1342 90.5235 17.8497C90.4303 17.7162 90.4093 17.55 90.2825 17.4292C89.9669 17.4896 89.6135 17.4837 89.3726 17.6894ZM89.7394 15.2979C90.0483 15.6781 90.5235 15.5245 90.9583 15.538V15.4926L90.2884 14.9302C90.1012 14.9907 89.9014 15.1569 89.7394 15.2979ZM77.4235 8.99303L77.8113 10.1968C77.8038 9.51431 78.1186 8.94686 78.0522 8.25183L78.3402 7.82372L77.7299 8.01008C77.5704 8.3173 77.437 8.62621 77.4235 8.99303ZM77.6846 6.90792L78.2126 6.59986V5.81836C77.9918 5.95267 77.8701 6.17931 77.6972 6.35978L77.6846 6.90792Z" fill="black"/>
<path id="Vector_5" fill-rule="evenodd" clip-rule="evenodd" d="M88.5382 8.12488C88.4106 8.29276 88.2176 8.33221 88.0573 8.36579C88.3376 7.85039 88.4719 7.13437 88.2503 6.55265C88.3981 6.49977 88.5592 6.47459 88.6994 6.39316L88.6851 6.37973L89.0536 6.05824C89.5422 5.72331 89.355 5.08955 89.5363 4.61444C89.2946 4.24006 89.2224 3.78594 88.8732 3.47116L88.8942 3.45856C88.6188 3.11105 88.1236 3.1505 87.7475 2.97674C87.2531 2.80886 86.872 3.1505 86.5169 3.37882C86.3633 3.404 86.4573 3.60546 86.2894 3.59875C86.1963 3.84637 86.0813 4.11415 86.015 4.3878C85.3527 4.29294 84.6375 4.36765 84.1078 4.74119C83.8266 4.53553 83.4858 4.4944 83.1576 4.40123C82.9167 4.35422 82.6422 4.44152 82.4693 4.30637C82.2158 4.02097 82.1604 3.49802 81.7247 3.42499C81.5719 3.37126 81.5392 3.20506 81.5392 3.05732C81.2513 3.01116 80.9952 2.87769 80.7149 2.81641C80.2876 2.62251 79.9468 2.93057 79.6253 3.13707C79.4851 3.19835 79.324 3.21765 79.1913 3.29908C78.9504 3.67262 78.7213 4.05455 78.5685 4.46754C78.6155 4.80835 78.7616 5.1097 78.9378 5.39678C79.0906 5.83159 79.5716 6.1724 79.9804 6.34616C79.7866 7.03938 79.7866 7.77246 79.9804 8.46568C79.9804 8.46568 79.9686 8.47407 79.9686 8.4724C79.962 8.47894 79.955 8.48511 79.9477 8.49086C79.883 8.49086 79.815 8.50345 79.763 8.4724H79.7538C79.8478 9.11035 80.1483 9.6694 80.6351 10.1487C80.8089 10.21 80.7694 10.4165 80.8433 10.5508C80.8895 10.6095 80.8954 10.7371 80.8752 10.7909C79.8915 10.7567 78.918 10.9995 78.0657 11.4918C77.8516 11.5992 77.9465 11.8947 77.9263 12.1004C78.5139 11.7142 79.1502 11.4255 79.852 11.2995C80.1542 11.2794 80.4941 11.2055 80.7829 11.2853L80.8165 11.8603C80.0207 12.275 79.1502 12.515 78.4669 13.1975C78.4812 13.404 78.4417 13.6457 78.5013 13.8203L79.1108 13.3242C79.6984 12.8777 80.3145 12.4957 80.9911 12.2489C81.1715 12.463 81.3604 12.6896 81.6005 12.8231C82.0065 12.563 82.4514 12.3691 82.9183 12.2489C83.1668 12.1012 83.5597 12.2347 83.7208 11.9417L83.835 11.3331C83.814 11.3197 83.8014 11.2937 83.7678 11.3004C83.4539 11.1199 83.2466 10.8068 83.2726 10.4383C83.1668 10.4904 83.0459 10.5248 82.9183 10.5306C82.8109 10.5046 82.7118 10.4786 82.6648 10.3712C82.6573 10.2368 82.5901 10.0362 82.7236 9.93634C83.1584 9.66856 83.7217 9.65513 84.2706 9.69626C84.6778 9.74915 85.2679 9.72816 85.4072 10.2117C85.3888 10.351 85.4013 10.5055 85.2612 10.5978C85.1134 10.6784 84.9472 10.5911 84.8121 10.5323C84.7063 10.8597 84.525 11.2282 84.1556 11.3331L84.2043 11.7218C84.2497 11.8964 84.2631 12.1835 84.5384 12.123C85.1739 12.2766 85.7354 12.604 86.2911 12.9582C86.4783 12.771 86.6261 12.5562 86.7587 12.3639C87.7492 12.6972 88.6062 13.4392 89.4221 14.1275L89.4566 13.566C88.6801 12.8777 87.8163 12.39 86.9198 12.0089C86.9543 11.8275 86.9937 11.6538 86.9996 11.4607C88.0412 11.5224 89.053 11.8317 89.951 12.3631L89.9367 11.8821C89.0142 11.3877 88.0035 11.0595 86.8989 11.046C86.8615 10.9837 86.8456 10.9109 86.8535 10.8387C87.3891 10.7514 87.7693 10.1974 87.8978 9.71473C88.1706 9.40163 88.5668 9.05999 88.4736 8.59327C88.4854 8.55466 88.4988 8.51353 88.5131 8.47324C88.5483 8.35572 88.5785 8.234 88.5382 8.12488Z" fill="black"/>
<path id="Vector_6" fill-rule="evenodd" clip-rule="evenodd" d="M89.47 9.8424L90.0181 9.66864L90.0777 9.36141C90.2322 8.91316 89.9048 8.57908 89.7428 8.224L89.47 9.8424ZM90.8517 11.9628C91.1119 12.2482 91.3662 12.7107 91.8287 12.5697C91.7952 12.3766 91.6877 12.2171 91.6214 12.0425C91.4997 11.9015 91.4602 11.5002 91.2193 11.6421C91.0388 11.5212 90.9927 11.3198 90.8777 11.1594C90.8256 11.4071 90.8584 11.7143 90.8517 11.9628ZM90.9473 13.9186C91.0481 14.0596 91.0749 14.2401 91.174 14.3668C91.3545 14.486 91.6222 14.4676 91.843 14.4466C92.0436 14.4004 92.1712 14.6204 92.3584 14.4928C92.125 14.3459 91.9849 14.0781 91.7624 13.885C91.5014 13.6785 91.2218 13.859 90.9473 13.9186ZM91.3007 17.0278C91.7616 17.3023 92.3492 17.5701 92.9645 17.4769C93.0316 17.4425 93.1458 17.4492 93.1584 17.3686C92.7773 17.2343 92.3769 16.8532 91.9773 16.7735C91.7557 16.4327 91.4678 16.8608 91.1874 16.8339C91.1933 16.9145 91.2739 16.9749 91.3007 17.0278ZM92.69 22.9297L92.7907 23.1446C92.8914 23.8413 93.3321 24.481 93.0912 25.2432C93.2918 25.3833 93.3531 25.6167 93.479 25.8039H93.5134C93.6671 25.223 93.5604 24.6212 93.479 24.0394C93.5395 23.5106 93.0039 23.2034 92.69 22.9297ZM92.8066 16.086C93.1542 16.3529 93.7099 16.3798 94.1103 16.2455C93.8568 16.1061 93.5764 15.9517 93.3674 15.7645L92.8066 16.086ZM94.4586 18.1375C94.4242 18.4196 94.6122 18.6529 94.8129 18.7923C94.8867 18.626 95.0068 18.4859 95.0194 18.2987C94.9571 18.0003 94.7855 17.7359 94.5384 17.5575C94.4914 17.7438 94.4385 17.9226 94.4586 18.1375ZM94.4796 21.1854C94.4326 21.4994 94.7793 21.5405 94.927 21.7143C95.0479 21.8603 94.8464 21.961 94.8464 22.1012C95.1008 22.4286 95.2477 22.8038 95.2477 23.2386C95.3484 22.8315 95.502 22.442 95.5574 22.0215C95.5306 21.7277 95.063 21.7873 95.136 21.4608C95.2687 21.1267 95.1083 20.7985 95.021 20.4988C94.9942 20.4509 94.9337 20.3569 94.8817 20.3838C94.7591 20.6583 94.4586 20.8513 94.4796 21.1854ZM95.3954 19.5947L95.7429 20.2696C95.8974 20.2503 95.9956 20.1017 96.1165 19.996C96.2105 19.7148 95.9629 19.5343 95.8898 19.3077C95.8285 19.1465 95.8898 18.9324 95.7757 18.7923C95.6892 18.7394 95.5876 18.6521 95.4877 18.6781L95.3954 19.5947ZM95.8445 17.8169C96.119 17.9831 96.4329 18.224 96.579 18.5169C96.8149 19.1994 97.1892 19.8138 97.4629 20.4753C97.5636 20.937 97.6442 21.3483 97.771 21.8032C97.8188 21.9224 97.7911 22.1558 97.9791 22.1373C98.032 21.6295 98.1327 21.1409 98.1395 20.6129C97.9733 20.393 97.7508 20.299 97.5435 20.1639V20.1185C97.5712 20.0044 97.6644 19.8709 97.8054 19.8919C97.865 19.8231 98.0454 19.7576 97.9665 19.6375C97.6182 19.2909 97.6383 18.6915 97.0818 18.5832C96.8887 18.5035 96.8409 18.3037 96.8224 18.1165C96.5605 17.8974 96.1719 17.821 95.8445 17.8169ZM96.1626 21.4398C96.5051 21.7529 96.3851 22.2078 96.3574 22.6292C96.3045 22.8836 96.6252 22.7367 96.7267 22.8701C96.9332 23.1774 96.8132 23.6256 96.7385 23.9597C96.9198 23.6852 97.1271 23.4443 97.2673 23.1438C97.2606 23.0296 97.4067 22.9767 97.4016 22.8366C97.4612 22.6435 97.2346 22.73 97.1406 22.7081C97.0608 22.688 96.9735 22.6351 96.9995 22.5285C97.1741 22.1927 97.0138 21.7923 96.9466 21.4591C96.8661 21.1846 96.9811 20.8178 96.8526 20.5777C96.6394 20.8715 96.0031 20.9386 96.1626 21.4398ZM96.7855 16.6937C97.3815 17.2956 97.8163 17.9 98.4584 18.4817C98.4727 18.2223 98.4383 17.9805 98.4249 17.7262C98.33 17.5474 98.1563 17.4131 98.0094 17.2796C97.5351 17.2318 97.2875 16.5938 96.7855 16.6937ZM98.3434 19.8801C98.3577 19.9406 98.3846 19.9926 98.4106 20.0539C98.6708 20.482 98.9184 20.9227 99.0998 21.3835C99.0469 20.89 99.3818 20.2738 98.9394 19.8936C98.879 19.7332 98.6784 19.787 98.5508 19.7996L98.3434 19.8801ZM99.9509 24.763C100.139 24.8478 100.379 24.6942 100.559 24.5884C100.727 24.5481 100.868 24.6413 100.995 24.7286C101.048 24.8352 100.995 24.9351 101.014 25.0358C101.417 25.1492 101.81 25.296 102.165 25.5302L102.278 25.4169C102.305 25.129 102.079 24.9233 101.864 24.7622C101.724 24.6808 101.515 24.7286 101.417 24.601C101.483 24.4952 101.483 24.3341 101.475 24.2132C101.254 24.2132 101.114 24.146 100.933 24.0394C100.821 24.0059 100.719 23.9135 100.626 24.0394C100.292 24.2669 100.272 24.601 99.9509 24.763ZM100.419 16.3504C100.586 16.3042 100.761 16.2555 100.901 16.1363C101.348 15.7284 101.997 16.002 102.519 15.9962C102.412 15.8138 102.289 15.6413 102.151 15.4808C101.964 15.4069 101.79 15.3204 101.576 15.3204C101.12 15.0535 100.814 15.5009 100.465 15.7208C100.372 15.903 100.326 16.1691 100.419 16.3504ZM100.433 17.7262C100.433 17.7077 100.433 17.6859 100.453 17.68C100.513 17.7337 100.445 17.8605 100.547 17.8865C100.721 17.8009 100.881 17.68 101.041 17.5675C101.49 17.5675 101.758 17.1327 102.198 17.1327C102.934 17.2662 103.664 17.4131 104.306 17.774C104.26 17.3392 103.885 16.9455 103.505 16.75C103.289 16.6769 103.122 16.7919 102.969 16.9111C102.52 17.1932 102.755 16.504 102.44 16.4897C102.032 16.6182 101.61 16.7575 101.155 16.7181C100.888 16.8171 100.7 17.0639 100.399 17.0379C100.386 17.2586 100.352 17.5264 100.433 17.7262ZM100.741 19.2187C100.88 19.3647 101.114 19.3379 101.317 19.3647L101.898 19.1381C101.905 19.0315 101.725 19.0038 101.763 18.8854C101.924 18.7041 102.146 18.8309 102.346 18.757C102.628 18.7175 102.916 18.4363 103.195 18.6437C103.189 18.6773 103.21 18.7243 103.183 18.757C103.095 18.9643 103.243 19.0911 103.403 19.1708C103.732 19.2321 104.039 19.5326 104.367 19.3975C104.334 19.1247 104.26 18.8712 104.192 18.6093C103.919 18.5623 103.725 18.3348 103.471 18.2408C103.356 18.3482 103.21 18.4288 103.069 18.4154C102.553 18.2953 101.937 17.9747 101.416 18.302C101.228 18.5287 100.894 18.4615 100.639 18.5623C100.654 18.7906 100.68 19.0105 100.741 19.2187ZM100.962 23.1908C100.921 23.305 100.808 23.493 101.014 23.545C101.443 23.5593 101.992 23.3385 102.327 23.6726C102.44 23.7608 102.387 23.9396 102.38 24.0537L102.941 24.5221C102.995 24.2409 103.095 23.9866 103.102 23.6852C103.06 23.4632 102.939 23.2638 102.762 23.1236C102.393 23.1236 102.179 22.693 101.784 22.7484C101.578 22.7006 101.397 22.8836 101.188 22.8836C101.095 22.9776 101.042 23.0917 100.962 23.1908ZM101.121 20.0405C101.208 20.2201 101.309 20.5147 101.475 20.5357C101.87 20.3611 102.445 20.2537 102.888 20.4417C103.035 20.4677 103.035 20.6348 103.002 20.7431C103.229 20.8765 103.504 20.9823 103.744 21.13L103.678 20.7296C103.664 20.294 103.115 20.2537 103.081 19.8247C102.633 19.6787 102.131 19.6317 101.657 19.7458C101.501 19.8869 101.281 19.8667 101.093 19.907C101.082 19.9599 101.114 19.9918 101.121 20.0405ZM101.237 22.2053C101.498 22.1323 101.663 21.8444 101.945 21.8192C102.373 21.8259 102.755 21.998 103.022 22.3665C103.184 22.4731 103.15 22.7476 103.356 22.7476C103.296 22.4194 103.403 22.118 103.391 21.7839C103.108 21.3172 102.415 21.6773 102.154 21.1292L101.658 21.1628C101.304 21.2492 101.398 21.6639 101.35 21.9451C101.31 22.0324 101.23 22.0987 101.237 22.2053ZM103.69 25.129C103.898 25.5428 104.354 25.8585 104.4 26.3336C104.506 26.2051 104.58 26.0591 104.654 25.9189C104.647 25.7846 104.492 25.7846 104.432 25.678C104.372 25.5051 104.466 25.3506 104.492 25.1962C104.406 24.9485 104.198 24.7152 103.964 24.5683L103.69 25.129ZM104.516 24.0739L104.997 24.7286C105.203 24.4012 105.203 23.9202 105.123 23.5249C105.077 23.451 104.989 23.3318 104.869 23.3847C104.688 23.5727 104.662 23.859 104.516 24.0739ZM102.553 5.77627C102.728 5.86357 102.895 5.94415 103.101 5.95674C103.243 5.88371 103.424 5.82999 103.597 5.87616C103.845 6.03732 104.145 5.84258 104.433 5.85601C104.179 5.61678 103.89 5.46988 103.597 5.32886C103.222 5.4086 102.922 5.6747 102.553 5.77627ZM105.172 6.40583C105.525 6.43857 105.78 6.75167 106.021 7.01524C106.322 7.06057 106.55 7.27378 106.73 7.49539L106.616 7.14032C106.536 6.78524 106.315 6.51076 106.089 6.23207C105.767 6.25221 105.452 6.27824 105.172 6.40583Z" fill="black"/>
<path id="Vector_7" fill-rule="evenodd" clip-rule="evenodd" d="M80.1962 3.47119L80.3901 3.49134C80.913 3.75156 81.7558 3.88586 81.8028 4.64134C81.2756 4.84867 80.7661 5.12988 80.3456 5.5563C80.0241 5.22893 79.3744 5.4094 79.2678 4.8344C79.3685 4.29382 79.5616 3.61305 80.1962 3.47119ZM80.7015 6.86075C81.3101 6.80871 81.8993 6.89349 82.5289 6.84145C82.6943 6.91251 82.831 7.03732 82.9167 7.19568C82.8966 7.91758 82.6758 8.6059 82.6422 9.34794C82.3686 9.46294 82.0999 9.68875 82.0336 9.9901C81.7852 10.0631 81.5644 10.2109 81.3235 10.3233C81.216 10.0967 81.2362 9.7559 81.4242 9.56871C81.6853 9.20021 82.3619 9.28751 82.3064 8.70663C82.481 8.42459 82.314 8.06448 82.3207 7.76984C82.2536 7.54991 82.1872 7.84371 82.0798 7.83699C81.8666 7.88232 81.645 7.89575 81.4586 7.79083C81.3168 7.64225 81.143 7.52221 81.1036 7.32243C80.9155 7.22842 80.6956 7.08152 80.6024 6.88678L80.7023 6.86159L80.7015 6.86075ZM81.4377 11.2198C81.7239 11.2585 82.0261 11.1325 82.2737 11.2719C82.22 11.3659 82.0806 11.4062 81.9665 11.4331L81.5182 11.6412C81.3504 11.5993 81.4444 11.3323 81.4377 11.2198ZM82.6086 5.63688C82.894 5.54287 83.2038 5.3498 83.511 5.44382C83.2902 5.66459 83.1165 5.95167 82.9503 6.21776L82.0336 6.19845C82.1318 5.95838 82.3862 5.75776 82.6078 5.63605L82.6086 5.63688ZM85.2939 5.41696C85.6742 5.3498 85.654 5.84506 86.0024 5.86521C86.0628 5.94579 86.1501 6.01882 86.1166 6.13802C85.9151 6.2186 85.6213 6.17915 85.393 6.23203C85.0916 6.06415 85.2872 5.54371 84.8113 5.57729C84.7852 5.53783 84.7307 5.45725 84.7978 5.42955C84.9456 5.37751 85.1386 5.39681 85.2939 5.41696ZM85.0513 7.20911C85.2175 6.97407 85.4727 6.95561 85.7136 6.90776L87.4462 6.94134C87.5201 7.00849 87.3799 7.06725 87.3799 7.14867C87.2724 7.24856 87.118 7.27543 87.0248 7.37028C86.7982 7.37699 86.8166 7.64309 86.6563 7.75641C86.4087 8.00404 86.0477 7.89072 85.7598 7.85042C85.6591 7.7774 85.5458 7.67667 85.4988 7.56251L85.419 7.64309C85.5197 8.01747 85.492 8.43214 85.5651 8.81324L85.9797 9.08772C85.9873 9.70302 86.71 9.53597 87.0248 9.87678C86.9509 10.0967 86.804 10.2839 86.6446 10.4728C86.4032 10.2395 86.1126 10.0634 85.7942 9.95736C85.7674 9.59641 85.3728 9.3832 85.1512 9.20188C85.0916 8.54714 85.0774 7.87813 84.9716 7.24269L85.0513 7.20911ZM85.6784 11.3332H86.4825L86.3818 11.7545L85.5777 11.4129C85.5592 11.3458 85.6314 11.3264 85.6784 11.3332ZM87.1239 3.75995L87.7198 3.57192C88.0615 3.73141 88.3821 3.93287 88.6961 4.15951C88.9446 4.61532 88.9026 5.22893 88.7901 5.73761C88.6088 5.93907 88.2143 5.73761 88.0682 6.05743H88.0405C87.8189 5.42955 87.191 4.86882 86.6085 4.58006C86.7025 4.26108 86.8032 3.94714 87.1239 3.75995Z" fill="#EAEAEA"/>
<path id="Vector_8" fill-rule="evenodd" clip-rule="evenodd" d="M101.082 29.227H104.652C105.18 29.1472 105.742 29.1598 106.163 28.7712C107.951 29.0465 109.764 28.605 111.168 27.6229C111.907 27.0325 112.561 26.3446 113.115 25.578C113.59 24.9124 113.965 24.2904 114.208 23.545C114.387 23.0841 114.531 22.6065 114.638 22.1146C115.149 19.7978 114.881 17.2074 114.127 15.0014C113.99 14.6 113.833 14.2055 113.658 13.8195C112.716 11.8737 111.434 9.7752 109.458 8.54377C108.345 7.85041 107.322 6.77764 106.693 5.66877C106.352 5.36071 106.023 4.95359 105.582 4.87972C105.703 5.08118 105.836 5.27425 105.87 5.50761L105.843 5.54118C105.375 5.55461 105.006 5.30782 104.685 5.00563L105.04 4.68582C104.906 4.61866 104.752 4.59096 104.606 4.5599C103.253 4.40545 102.143 5.02662 100.946 5.32797L100.926 5.39428C101.661 5.72166 101.814 6.53001 102.243 7.07899C102.351 6.9514 102.531 7.04542 102.678 7.03115C102.892 7.04458 103.093 7.19903 103.299 7.14447C103.307 6.96483 103.207 6.82549 103.173 6.66516C103.299 6.60304 103.455 6.65761 103.595 6.66516C103.983 6.8918 104.606 6.62319 104.846 7.14447C104.404 7.17301 103.989 7.2645 103.575 7.36523C103.602 7.53312 103.769 7.66742 103.756 7.83363C103.396 7.6864 103.018 7.58978 102.631 7.54655L102.613 7.60531C103.115 8.19374 103.802 8.54209 104.505 8.74943C105.515 8.98363 106.405 8.50264 107.381 8.66968C109.778 9.76596 111.825 12.2741 112.716 14.6539C112.76 14.768 112.801 14.8839 112.841 15.0006C113.586 17.1738 113.727 19.8474 112.981 22.1129C112.583 23.0573 112.146 23.9454 111.444 24.7134C111.185 25.0334 110.891 25.3229 110.566 25.5764C109.561 26.357 108.323 26.7012 107.047 26.3503C106.968 26.2983 106.806 26.284 106.833 26.1446C107.142 24.8554 107.269 23.529 107.209 22.2044L107.203 22.0575C107.133 20.3988 106.801 18.9064 106.191 17.4726C105.801 16.6483 105.335 15.751 104.75 14.9443C104.051 13.9832 103.183 13.1522 102.069 12.7383C101.386 12.557 100.543 12.5243 100.028 13.0934C99.6597 13.4141 99.5061 13.8489 99.559 14.3223C98.984 14.6883 98.3368 14.8847 97.6325 14.9443C97.4596 14.9594 97.2825 15.0215 97.1045 15.0207C96.9333 15.0291 96.7671 15.0207 96.6059 15.0006C95.7564 14.8956 94.9002 14.4407 94.2488 13.9177C94.2354 13.5719 94.2144 13.2428 94.2018 12.876C93.8274 12.6821 93.5202 12.3136 93.4933 11.8796L93.5269 11.846C93.741 11.9132 93.9282 12.0198 94.1212 12.134C94.0339 11.6127 93.9349 11.0973 93.6738 10.6432C93.4329 10.5424 93.1903 10.4635 92.9637 10.3418C92.7026 10.168 92.5356 9.8541 92.497 9.56618C92.7303 9.7945 93.1383 9.71392 93.3196 9.95483C93.0056 9.0256 92.9981 7.9629 92.4827 7.11341C92.2216 6.48469 91.5392 6.19844 91.0708 5.73593C90.8895 5.51516 90.8164 5.20877 90.4882 5.17352C90.2213 5.10804 90.2003 4.80669 90.1541 4.61363C90.3212 4.63293 90.4614 4.74709 90.6032 4.77312C90.2137 3.74315 89.8729 2.60155 88.8228 1.94596L88.6415 2.05928C88.2266 2.11663 87.8087 2.15027 87.3899 2.16001C87.5713 1.8914 87.8919 1.77892 88.1471 1.65804C87.8516 1.43812 87.6099 1.38439 87.2405 1.32312C87.0273 1.53885 86.6412 1.64461 86.3667 1.70421L86.3331 1.67903C86.3264 1.43812 86.2702 1.14264 86.632 1.08304C86.2844 0.915999 85.7094 0.982313 85.3535 1.08304C85.2528 1.3441 84.9674 1.5783 84.9867 1.88469C84.7802 2.09958 84.6333 2.38666 84.4176 2.54027C84.4125 2.02571 84.6299 1.5506 84.7248 1.11746C84.4235 1.22994 84.1179 1.39027 83.8233 1.53129C83.3482 1.2568 82.8479 0.983152 82.34 0.775816C82.293 0.75567 82.1923 0.735524 82.2116 0.821984C82.6464 1.13677 82.4785 1.72436 82.5255 2.17344L82.2502 1.9468C82.1167 1.60516 81.7298 1.35753 81.6643 0.983152C81.2085 1.06961 80.9172 1.19049 80.4958 1.3718L80.4371 1.40454C80.751 1.40454 81.0188 1.65133 81.1732 1.89812C80.6981 1.92582 80.2767 1.73779 79.8092 1.69246C79.7613 1.64461 79.7227 1.59173 79.6472 1.59844C79.4121 1.68574 79.2132 1.85279 79.005 2.01312C78.5433 2.4664 78.0749 2.97005 77.855 3.57023C78.0095 3.59793 78.2025 3.59122 78.3167 3.68523C78.0632 3.83885 77.8416 4.09906 77.594 4.24596C77.5075 4.59432 77.5201 4.98801 77.4999 5.36994C77.3069 5.66374 77.045 5.92396 76.9182 6.25133C76.5036 7.59439 76.3961 9.0852 76.4566 10.6096C76.3222 10.7355 76.1477 10.8186 76.0217 10.9176L76.036 12.2809H76.0687C76.13 11.9929 76.4717 11.8334 76.6782 11.6395H76.7453C76.7117 11.9468 76.6714 12.254 76.6647 12.5688L76.2769 12.8894C75.89 13.2302 76.2173 13.744 76.1829 14.1721C76.2106 14.2862 76.2291 14.4533 76.3113 14.4801C76.3575 14.3131 76.5044 14.1922 76.5976 14.0461C76.7655 14.0042 76.9115 13.8715 77.0651 13.8514C76.978 14.1866 76.8661 14.5149 76.7302 14.8335C76.6672 14.8755 76.5909 14.9342 76.5271 15.0014C76.4582 15.0688 76.4111 15.1554 76.3919 15.2499C76.6924 16.8338 77.165 18.3977 77.7081 19.8876C77.3388 20.5088 77.1314 21.2416 76.8242 21.8838C76.7809 21.9738 76.7408 22.0653 76.7042 22.1583C76.397 22.9356 76.3029 23.8035 75.9202 24.5506C75.7653 24.4467 75.5999 24.3594 75.4266 24.2904C74.7022 24.0503 73.8661 24.2039 73.339 24.7579C72.8689 24.6706 72.3879 24.7504 72.0186 24.998C71.7558 25.1961 71.551 25.4345 71.4343 25.714C71.3563 25.9071 71.3176 26.1186 71.3311 26.3495C71.0289 26.556 70.8677 26.8775 70.7687 27.1973C70.6276 27.9209 70.882 28.6713 71.2967 29.2261L101.082 29.227Z" fill="black"/>
<path id="Vector_9" fill-rule="evenodd" clip-rule="evenodd" d="M114.127 15.0032C113.99 14.6012 113.834 14.2062 113.658 13.8196C112.716 11.8747 111.434 9.77617 109.458 8.54475C108.345 7.85139 107.322 6.77862 106.693 5.66975C106.352 5.36168 106.023 4.95457 105.582 4.8807C105.703 5.08132 105.836 5.27522 105.87 5.50858L105.843 5.54216C105.375 5.55559 105.006 5.3088 104.685 5.00661L105.04 4.68679C104.906 4.61964 104.752 4.59194 104.606 4.56004C103.253 4.40643 102.143 5.02676 100.946 5.32811L100.926 5.39526C101.661 5.72263 101.814 6.53099 102.243 7.07997C102.351 6.95238 102.531 7.04555 102.678 7.03212C102.892 7.04555 103.093 7.19916 103.299 7.14544C103.307 6.96581 103.207 6.82562 103.173 6.6653C103.299 6.60402 103.455 6.65858 103.595 6.6653C103.983 6.89194 104.606 6.62417 104.846 7.14544C104.404 7.17314 103.989 7.26548 103.575 7.36621C103.602 7.53409 103.769 7.6684 103.756 7.8346C103.396 7.68708 103.018 7.59019 102.631 7.54668L102.613 7.60628C103.115 8.19471 103.802 8.54307 104.505 8.75041C105.515 8.98376 106.405 8.50362 107.381 8.67066C109.778 9.76694 111.825 12.2743 112.716 14.6549C112.76 14.769 112.801 14.8849 112.841 15.0007C113.586 17.1748 113.727 19.8483 112.981 22.1139C112.583 23.0583 112.146 23.9464 111.444 24.7144C111.185 25.0344 110.891 25.3239 110.566 25.5773C109.561 26.358 108.323 26.7022 107.047 26.3513C106.969 26.2992 106.806 26.285 106.833 26.1448C107.142 24.8556 107.269 23.5291 107.209 22.2046L107.203 22.0577C107.133 20.3998 106.801 18.9073 106.191 17.4728C105.801 16.6501 105.335 15.752 104.75 14.9461C104.051 13.9842 103.183 13.1531 102.069 12.7385C101.386 12.558 100.543 12.5253 100.028 13.0935C99.6597 13.415 99.5061 13.849 99.559 14.3233C98.984 14.6893 98.3368 14.8857 97.6325 14.9453C97.4596 14.9604 97.2825 15.0225 97.1045 15.0217C96.9333 15.0301 96.7671 15.0217 96.6059 15.0007C95.7564 14.8966 94.9002 14.4416 94.2488 13.9179C94.2354 13.5729 94.2144 13.243 94.2018 12.877C93.8274 12.6822 93.5202 12.3146 93.4934 11.8806L93.5269 11.847C93.741 11.9133 93.9282 12.0208 94.1212 12.1349C94.0339 11.6137 93.9349 11.0983 93.6738 10.6441C93.4329 10.5434 93.1903 10.4645 92.9637 10.3419C92.7026 10.169 92.5356 9.85508 92.497 9.56716C92.7303 9.79548 93.1383 9.7149 93.3196 9.95581C93.0057 9.02657 92.9981 7.96303 92.4827 7.11438C92.2216 6.48482 91.5392 6.19858 91.0708 5.73606C90.8895 5.51614 90.8165 5.20891 90.4883 5.17533C90.2213 5.10818 90.2003 4.80683 90.1542 4.6146C90.3212 4.63391 90.4614 4.74807 90.6032 4.77409C90.2138 3.74413 89.873 2.60252 88.8228 1.94694L88.6415 2.06026C88.2266 2.11761 87.8087 2.15124 87.39 2.16099C87.5713 1.89238 87.8919 1.77989 88.1471 1.65902C87.8516 1.43825 87.6099 1.38537 87.2405 1.32409C87.0273 1.53898 86.6412 1.64475 86.3667 1.70519L86.3331 1.68C86.3264 1.43909 86.2702 1.14362 86.632 1.08402C86.2845 0.916975 85.7095 0.983289 85.3535 1.08402C85.2528 1.34508 84.9674 1.57927 84.9867 1.88566C84.7802 2.10055 84.6333 2.38679 84.4176 2.54125C84.4126 2.02668 84.63 1.55073 84.7248 1.1176C84.4235 1.23092 84.1179 1.39041 83.8233 1.53227C83.3482 1.25778 82.8479 0.983289 82.34 0.776793C82.293 0.756647 82.1923 0.736501 82.2116 0.822961C82.6464 1.1369 82.4785 1.72533 82.5255 2.17358L82.2502 1.94694C82.1168 1.60614 81.7298 1.35935 81.6643 0.983289C81.2085 1.07059 80.9172 1.19146 80.4958 1.37194L80.4371 1.40552C80.751 1.40552 81.0188 1.6523 81.1733 1.89909C80.6981 1.92679 80.2768 1.73876 79.8092 1.6926C79.7614 1.64559 79.7227 1.59187 79.6472 1.59942C79.4122 1.68672 79.2132 1.85376 79.005 2.01409C78.5434 2.46738 78.075 2.97103 77.855 3.57121C78.0095 3.59891 78.2026 3.59219 78.3167 3.68537C78.0632 3.83898 77.8416 4.10004 77.594 4.24778C77.5075 4.5953 77.5201 4.98898 77.5 5.37092C77.3069 5.66471 77.045 5.92493 76.9183 6.2523C76.5036 7.59537 76.3961 9.08617 76.4566 10.6106C76.3223 10.7365 76.1477 10.8187 76.0218 10.9186L76.036 12.2818H76.0688C76.13 11.9939 76.4717 11.8336 76.6782 11.6405H76.7453C76.7118 11.9477 76.6715 12.255 76.6647 12.5697L76.2769 12.8904C75.89 13.2312 76.2173 13.7449 76.1829 14.1722C76.2106 14.2864 76.2291 14.4542 76.3114 14.4811C76.3575 14.3132 76.5044 14.1932 76.5976 14.0471C76.7655 14.0052 76.9115 13.8725 77.0651 13.8524C76.9783 14.1879 76.8667 14.5164 76.7311 14.8353C76.6681 14.8773 76.5917 14.9361 76.5279 15.0032C76.4592 15.0704 76.4121 15.1567 76.3928 15.2508C76.6933 16.8357 77.1659 18.3987 77.709 19.8895C77.3396 20.5106 77.1323 21.2434 76.8251 21.8856C76.7818 21.9753 76.7417 22.0666 76.705 22.1592C76.3978 22.9374 76.3038 23.8045 75.921 24.5533C75.7662 24.4487 75.6008 24.3609 75.4274 24.2914C74.703 24.0513 73.867 24.2049 73.3398 24.7597C72.8697 24.6724 72.3888 24.7522 72.0194 24.9998C71.7567 25.1979 71.5519 25.4363 71.4352 25.7158C71.3571 25.9089 71.3185 26.1204 71.3319 26.3513C71.0297 26.5578 70.8686 26.8784 70.7695 27.1991C70.6285 27.9218 70.8828 28.6731 71.2975 29.228H83.1215C82.9478 29.0215 82.7874 28.7335 82.6657 28.4868C82.4122 28.104 82.586 27.5634 82.5591 27.1219C82.8 26.6367 83.0443 26.1481 83.3196 25.673C83.3759 25.5773 83.4313 25.4833 83.4884 25.391L84.0315 25.1837C84.3185 25.1837 84.5603 24.9763 84.8339 25.0493C85.2024 25.4187 85.2024 24.6825 85.5575 24.6489C86.3869 24.5415 87.2103 24.6212 87.6779 25.3238C87.6779 25.417 87.8265 25.417 87.792 25.5043C87.6846 25.5362 87.5839 25.4707 87.4714 25.4707C86.9627 25.344 86.3667 25.0216 85.8656 25.3096C85.8463 25.4296 85.8203 25.5513 85.7959 25.6714C85.7707 25.7998 85.7481 25.924 85.7372 26.0441C86.0645 26.1381 86.339 26.3723 86.5866 26.6258C86.7537 26.2984 87.1088 26.1515 87.4235 26.0441C87.698 26.1045 87.9985 26.1112 88.2269 26.285C88.6491 26.6736 88.4409 27.3351 88.4015 27.8295C88.7817 28.0427 89.2039 28.1644 89.5909 28.3709C89.4104 28.5329 89.1712 28.5984 88.9496 28.679L88.3074 28.5514C88.2344 28.4985 88.106 28.4985 88.08 28.4053C87.8659 28.632 87.6049 28.9333 87.4714 29.2263H96.6378C96.5169 28.9518 96.3767 28.7386 96.2097 28.4851C96.0217 28.0838 96.0964 27.5349 96.0754 27.1076L96.9324 25.804C97.4 25.7973 97.9297 25.6227 98.4375 25.71C98.4631 25.6988 98.4878 25.6856 98.5114 25.6705C98.7221 25.5253 98.7867 25.187 99.1007 25.229C99.6614 25.0762 100.09 25.3297 100.513 25.5841C100.5 25.6139 100.486 25.6428 100.47 25.6705C100.293 25.9534 99.9627 25.6378 99.7218 25.7234C99.6211 25.83 99.7688 25.9568 99.7881 26.0776C99.8754 26.1977 99.7008 26.1834 99.6412 26.2044C99.5692 26.217 99.4951 26.2122 99.4253 26.1903C99.3555 26.1684 99.2919 26.13 99.24 26.0785C99.2131 26.0441 99.2333 26.0046 99.1804 25.9979C99.0587 26.1977 98.8849 26.379 98.8388 26.6056C98.9915 26.7534 99.1989 26.8994 99.2736 27.0883C99.4272 27.3082 99.1527 27.4744 99.0998 27.6692C99.0797 27.7086 99.0184 27.7086 98.9991 27.6692C98.8572 27.5894 98.738 27.388 98.5836 27.4408C98.4493 28.0368 98.6297 28.6311 98.55 29.2263C98.8111 29.2876 99.1183 29.2129 99.3995 29.2263L99.5137 27.9697C99.6328 27.1546 100.116 26.4722 100.685 25.8493C101.299 25.4296 101.695 26.2589 102.149 26.546C102.223 26.5595 102.197 26.6392 102.229 26.6854C102.222 26.8197 102.083 26.8734 101.989 26.9137C101.707 27.0127 101.5 26.7055 101.326 26.525C101.16 26.7055 101.085 26.9456 100.891 27.0874L100.958 27.1068C101.181 27.3284 101.393 27.5617 101.441 27.8555C101.414 28.1225 101.281 28.3827 101.039 28.5187C100.864 28.2096 100.715 27.887 100.591 27.5542C100.598 27.5684 100.584 27.5743 100.571 27.5886C100.202 27.6876 100.105 28.1023 100.042 28.4372C100.063 28.7646 99.815 28.8989 99.8813 29.2263H104.653C105.181 29.1457 105.744 29.1591 106.165 28.7696C107.919 29.0399 109.709 28.6291 111.17 27.6213C111.908 27.0308 112.563 26.3429 113.116 25.5765C113.591 24.9108 113.967 24.2888 114.208 23.5434C114.389 23.0834 114.532 22.605 114.64 22.1131C115.149 19.7988 114.881 17.2084 114.127 15.0032Z" fill="#EAEAEA"/>
<path id="Vector_10" fill-rule="evenodd" clip-rule="evenodd" d="M83.4195 27.4089C83.6797 27.241 84.1019 27.2007 84.1615 26.8138C84.0557 26.7332 83.9617 26.6324 83.8409 26.6064L83.5664 26.6862C83.5857 26.525 83.673 26.3454 83.7284 26.1716L84.6106 25.8845C84.4889 26.2849 84.4436 26.7869 84.4024 27.2486C84.4822 27.9302 84.5829 28.6588 84.9313 29.2271H83.981C83.8744 28.5992 83.2172 28.1434 83.4195 27.4089ZM85.4744 26.6064H85.5272L86.1686 27.189L86.2626 27.1688C86.2084 27.8537 86.1771 28.5401 86.1686 29.2271H85.4744C85.3325 28.5656 85.0983 27.8697 85.126 27.1554C85.246 26.9749 85.3258 26.7474 85.4744 26.6064ZM86.9056 27.2486C87.0332 27.0824 87.086 26.8003 87.3404 26.7684C87.5209 26.7735 87.6879 26.8003 87.823 26.9279C88.0572 27.2217 87.8281 27.5978 87.7433 27.8907C87.6493 28.339 87.4873 28.8057 87.3412 29.2271H86.6655L86.9056 27.2486ZM97.0566 27.0421C97.2035 27.2293 97.2497 27.4836 97.4713 27.6507C97.6652 27.3829 97.7122 26.9682 97.6182 26.6274L97.4243 26.4335C97.6727 26.3747 97.933 26.3529 98.1806 26.3076C98.0732 26.661 97.8709 26.9816 97.9061 27.3963C97.9128 27.9982 98.0127 28.6 98.0664 29.2271H97.3311C97.0633 28.6395 96.7956 28.0779 96.8157 27.3963C96.8955 27.2754 96.9492 27.1344 97.0566 27.0421Z" fill="#EAEAEA"/>
<path id="Vector_11" fill-rule="evenodd" clip-rule="evenodd" d="M100.222 14.1982C100.214 14.3719 100.089 14.565 100.201 14.7136C100.363 14.5323 100.63 14.539 100.845 14.4592C101.44 14.4047 102.008 14.5927 102.563 14.727C102.424 14.5054 102.33 14.2586 102.175 14.058C101.867 13.9774 101.399 14.1923 101.346 13.7365C101.159 13.5762 100.865 13.6903 100.67 13.7029C100.482 13.8372 100.329 14.0043 100.222 14.1982ZM79.7697 8.42468L79.7604 8.41797L79.7613 8.42468H79.7697ZM82.2023 14.3678L82.6036 13.9808C82.638 13.9808 82.6648 13.9875 82.6841 14.0127L82.6506 14.7547C82.8445 14.936 83.0845 14.9948 83.3389 15.0091C83.3599 14.8093 83.5135 14.6674 83.6008 14.4945C83.6746 14.3543 83.6276 14.147 83.7745 14.0479L83.8215 14.0933C83.8677 14.3149 83.8551 14.5625 83.9684 14.7547L84.0138 15.0896C84.3092 15.1031 84.577 15.0225 84.8037 14.915C84.7902 14.6615 84.8784 14.4542 84.917 14.2217C84.9783 14.1411 84.8431 13.9925 85.011 14.0001C85.105 14.2007 85.2712 14.4072 85.3661 14.6221C85.7539 14.2276 85.9159 13.7138 86.0074 13.1783C85.8941 13.0247 85.7203 13.0247 85.5852 12.924C84.4486 12.5571 82.9914 12.4833 81.8934 13.0515C81.8195 13.5048 81.9127 14.006 82.2023 14.3678ZM71.5669 26.912C71.5266 27.4274 71.5669 27.9109 71.6005 28.4187C71.7071 28.5858 71.9027 28.7797 72.0957 28.7923L72.1293 28.4506C72.2091 27.9764 71.9556 27.4727 72.2233 27.0715C72.4105 27.1302 72.5977 27.2251 72.7589 27.3115C72.8386 26.8709 72.7253 26.3546 72.3031 26.0868L71.5669 26.912ZM73.2214 26.1892C72.9603 26.9716 72.7664 27.9352 73.0812 28.7595C73.2617 28.6378 73.4489 28.5245 73.6084 28.3583C73.5756 27.7287 73.4883 27.0589 73.8627 26.5368C74.1901 26.6375 74.4117 26.9506 74.5376 27.257C74.76 26.9775 74.8331 26.5888 74.7466 26.2161C74.76 25.9206 74.426 25.9895 74.2648 25.8677C74.3177 25.6201 74.311 25.3347 74.572 25.1929L73.7704 25.2734C73.563 25.5681 73.3356 25.8552 73.2214 26.1892ZM74.8759 28.4993C74.9095 28.5581 74.8759 28.6664 74.943 28.6798C75.0429 28.1174 75.4971 27.7539 75.7464 27.2587C75.8656 27.0933 75.8597 26.8583 76.0536 26.7315C76.3138 26.7315 76.5018 26.9187 76.757 26.9388C76.8368 26.9993 76.7151 27.053 76.7083 27.1193C76.6555 27.5751 76.4817 27.9503 76.5153 28.4187H76.5614C76.9157 28.0444 77.1574 27.6406 77.4176 27.2125L77.4638 26.8331C77.5251 26.3781 77.0307 26.0843 76.7075 25.8963L76.9954 25.5278L76.5933 25.3876C76.1242 25.4262 75.6882 25.6446 75.3762 25.997C74.9682 26.7441 74.9019 27.5902 74.875 28.4985L74.8759 28.4993ZM76.6739 24.5322C76.8267 24.5776 76.9677 24.4517 77.1205 24.518C77.7366 24.7455 78.3796 24.9796 78.8413 25.4934L79.3903 26.891L79.6648 26.0272L79.4834 25.5614C79.329 25.2273 78.9084 25.2541 78.6197 25.2407C78.4997 25.1064 78.6264 24.9528 78.6675 24.826C78.8077 24.3509 78.2252 24.3778 77.9918 24.1839C78.0052 23.8976 77.6569 23.9959 77.463 23.9707L77.3958 23.8901C77.3555 23.8288 77.2556 23.8288 77.2011 23.8758C77.1893 23.8565 77.1625 23.8422 77.1759 23.8095L77.029 23.8431C76.82 24.0236 76.6806 24.2577 76.6739 24.5322ZM77.0617 22.9944C77.0838 23.0827 77.1328 23.1619 77.2019 23.2211C77.5041 23.1413 77.792 22.9323 78.1387 23.0607C78.5878 23.4553 79.0553 23.8691 79.5984 24.0823L79.7932 24.0496C79.9124 24.089 80.0459 24.0957 80.1264 24.23C80.2003 24.4114 80.0131 24.5171 79.9535 24.664C80.254 24.8856 80.1348 25.2793 80.3212 25.5454L80.8022 24.9058C80.6905 24.6237 80.8097 24.1436 80.369 24.1167C80.2954 24.0825 80.2333 24.0276 80.1903 23.9588C80.1472 23.8899 80.125 23.8101 80.1264 23.7289C79.8402 23.4687 79.4851 23.3545 79.198 23.0868C78.9622 22.9004 78.8228 22.6133 78.5223 22.5462C78.3141 22.432 78.0867 22.3716 77.8466 22.3195C77.3967 22.2515 77.3564 22.7863 77.0617 22.9944ZM77.7047 21.6782L77.7845 21.8067C78.1194 21.7857 78.4199 21.6388 78.7481 21.6455C78.968 21.779 79.256 21.7714 79.4834 21.8864C79.6648 22.134 79.8587 22.4136 80.1248 22.5806C80.6679 22.6603 80.9675 23.2437 81.1556 23.6702V23.4637C81.2353 23.1757 81.148 22.8408 81.0431 22.5806C80.9088 22.4463 80.7132 22.3607 80.5738 22.2406C80.547 22.1542 80.5671 22.1122 80.594 22.0333C80.3858 21.8125 80.0786 21.6917 79.8242 21.5171C79.4692 21.0025 78.7876 21.1444 78.2453 21.0025L77.7047 21.6782ZM77.6946 16.7744C77.7534 16.9825 77.8264 17.2419 77.8667 17.4635C78.0539 17.0488 78.4233 16.8617 78.7506 16.5217C78.5626 16.3941 78.3284 16.3337 78.1219 16.2942V16.2808C77.9742 16.426 77.7467 16.5746 77.6946 16.7744ZM78.9093 18.9736L79.2098 18.6664C79.512 18.3583 79.7604 18.0033 79.8058 17.6087C79.5917 17.4828 79.3105 17.5701 79.104 17.644C79.0302 18.0763 78.916 18.5044 78.9093 18.9736ZM79.1284 19.9171C79.59 19.9423 80.0391 20.0363 80.4135 19.7753L80.7887 18.5724C80.667 18.5657 80.5461 18.5111 80.4337 18.5522C80.186 19.0995 79.6916 19.6418 79.1284 19.9171ZM79.266 15.6521C79.5665 16.0927 80.0694 16.5863 80.5839 16.7273C80.5243 16.1649 80.0425 15.7771 79.7949 15.2978L79.7806 15.1367C79.5875 14.9495 79.3525 14.8219 79.151 14.7228C79.1191 15.0435 79.2064 15.3499 79.266 15.6521ZM80.897 19.9692C81.2513 20.0288 81.6332 19.9692 81.9606 19.8684C82.4348 19.7543 82.6967 19.233 82.8571 18.8259H82.2611L81.6198 19.4538C81.3663 19.5872 81.1253 19.7879 80.897 19.9692ZM80.8257 15.0435C80.9264 15.5656 81.148 16.0399 81.4494 16.4873L81.5283 15.4909L80.8257 15.0435ZM83.0182 17.6432C83.0585 17.3091 82.9183 16.9204 82.8789 16.5813C82.6774 16.447 82.3979 16.4596 82.1906 16.3269C82.204 16.8533 82.6178 17.3023 83.0182 17.6432ZM82.4088 21.0394C82.8302 20.906 83.2382 20.7591 83.6268 20.545C83.8744 20.1908 84.248 19.8701 84.3025 19.4563C83.9928 19.5427 83.7267 19.442 83.4388 19.583C83.265 19.897 83.1576 20.2521 82.8235 20.4787C82.7698 20.7053 82.5221 20.859 82.4088 21.0394ZM83.0644 21.8604L83.5664 22.5151C83.8341 22.6016 84.1691 22.5756 84.4024 22.4228L84.2228 21.8285C83.8677 21.9603 83.4463 21.9217 83.0644 21.8604ZM83.8996 17.1294L84.0935 18.0108C84.5619 17.6306 84.6584 17.0757 84.645 16.4873C84.3772 16.7945 84.2219 16.9825 83.8996 17.1294ZM85.2217 18.6857C85.2244 18.8101 85.2635 18.9309 85.3342 19.0332C85.8554 19.2213 85.9092 19.855 86.3918 20.0959C86.7049 20.2369 87.0676 20.0623 87.3404 19.9348C87.1339 19.7014 86.9005 19.5402 86.6991 19.2943C86.5589 19.2338 86.417 19.1474 86.4246 18.9736L85.2217 18.6857ZM85.6355 21.8411C85.8622 22.1013 86.1694 22.2356 86.4901 22.3078C86.4372 22.2348 86.5245 22.3078 86.5371 22.2616L86.1358 21.3794C85.9344 21.3861 85.727 21.4272 85.5398 21.413C85.5549 21.5607 85.5877 21.7068 85.6355 21.8411ZM86.3423 17.7246C86.1543 17.2898 86.0771 16.7609 86.0225 16.2808C85.8227 16.5217 85.6145 16.6753 85.4273 16.9213C85.34 17.4157 86.0485 17.5365 86.3423 17.7246ZM87.1582 17.2688C87.4 17.5844 87.928 17.4769 88.2226 17.3829C88.0816 17.142 87.6283 17.0002 87.5486 16.7416C87.5059 16.2884 87.409 15.842 87.2598 15.412C87.0264 15.9794 86.7436 16.6543 87.1582 17.2688ZM87.5805 18.6857C88.2503 19.1726 88.9059 19.7417 89.8418 19.5335C89.909 19.4882 90.0232 19.4932 90.0357 19.4076C89.7613 19.2338 89.4675 19.0987 89.1863 18.9392L88.8664 18.4717H88.7187C88.3569 18.5909 87.9699 18.6395 87.5805 18.6857ZM87.5972 24.1067H87.6451C88.0463 23.786 88.5206 23.6786 88.9957 23.5451C89.1233 23.5921 89.0427 23.7331 89.1569 23.786C89.4448 23.6668 89.7931 23.6928 90.0869 23.5929C90.4412 23.6055 90.7299 23.6114 91.017 23.765C91.2462 24.0672 91.6726 24.0319 91.9681 24.2334L91.9202 23.765C91.2991 23.0364 90.3287 22.9844 89.4314 22.9969L89.4121 22.9046C89.1861 22.9041 88.9627 22.9516 88.7565 23.044C88.4694 23.0574 88.1941 23.1976 87.9196 23.284C87.7911 23.5384 87.6904 23.8473 87.5972 24.1067ZM88.1319 15.8921C88.3922 16.2329 88.78 16.4948 89.2223 16.4075C88.9957 16.1851 88.733 15.9517 88.7204 15.6378C88.7875 15.0435 88.1319 14.9956 87.8113 14.6884C87.9179 15.0896 87.9036 15.5379 88.1319 15.8921ZM88.0631 25.2886H88.1437C88.4971 25.0686 89.0125 25.2365 89.3609 25.0023C89.5548 24.9016 89.5682 25.1702 89.7025 25.2432C90.0299 25.4422 90.071 26.044 90.5318 25.9047C91.0867 26.1918 90.9474 26.8667 90.9667 27.3611L91.4829 27.0413C91.4351 26.7802 91.5836 26.4654 91.4149 26.2388C91.2882 25.9517 90.9398 25.9248 90.7728 25.6915C90.9742 25.3498 90.5184 25.1887 90.4244 24.9419L90.4521 24.9083L91.1614 25.0023C91.4023 25.1492 91.4896 25.417 91.5635 25.6646C92.1175 25.7578 92.251 26.3865 92.4457 26.7869C92.5599 26.5133 92.6069 26.2178 92.7202 25.9509C92.7278 25.7301 92.4331 25.7301 92.2854 25.6302C92.2459 25.2886 92.0915 24.9687 91.791 24.7622C91.1748 24.6069 90.6334 24.267 89.9577 24.267L89.3961 24.4399C89.0872 24.5146 88.7598 24.4206 88.5248 24.6338C88.1764 24.6607 88.1504 25.0426 88.0631 25.2886ZM88.4182 22.5353L88.5458 22.5965C88.8203 22.469 89.0939 22.3221 89.3827 22.2146C89.8292 22.0887 90.1776 22.5957 90.5537 22.275C90.693 22.1752 90.8147 22.3221 90.9205 22.4026C91.0833 22.6964 91.4569 22.6763 91.7381 22.7552C91.5979 22.3758 91.4233 21.8545 90.9348 21.7932C90.7409 21.7068 90.5125 21.7143 90.3262 21.6002C89.8108 21.0319 89.4767 22.0686 88.9126 21.815C88.7128 22.0333 88.4652 22.2432 88.4182 22.5353Z" fill="black"/>
<path id="Vector_12" fill-rule="evenodd" clip-rule="evenodd" d="M88.5458 25.7912C88.7599 25.9717 88.9806 26.2797 89.3156 26.2386C89.7302 26.4317 89.5565 26.9807 89.7831 27.2686L90.024 27.0545L90.0039 27.0403L90.0375 27.0067L90.0517 27.026C90.118 26.8262 90.024 26.472 89.9099 26.2369C89.7571 26.1312 89.5766 26.2445 89.4289 26.1438C89.4087 25.9289 89.2753 25.8231 89.1216 25.6905C89.0142 25.6091 88.8732 25.7157 88.7523 25.7089L88.5458 25.7912ZM89.381 17.643C89.6018 18.0107 90.0299 18.2381 90.3715 18.4916C90.6528 18.6184 91.0196 18.652 91.3218 18.584C91.0354 18.3482 90.771 18.0869 90.5319 17.8033C90.4379 17.669 90.4177 17.5011 90.2918 17.3819C89.977 17.4424 89.6219 17.4357 89.381 17.643ZM89.7512 15.2515C90.0584 15.6318 90.5336 15.4781 90.9684 15.4916V15.4446L90.2994 14.883C90.1122 14.9426 89.9115 15.1096 89.7512 15.2515ZM77.4319 8.94664L77.8198 10.1504C77.8122 9.46792 78.1287 8.8988 78.0615 8.2046L78.3477 7.7765L77.7392 7.96369C77.5788 8.27091 77.4454 8.57982 77.4319 8.94664ZM77.6947 6.86153L78.2235 6.55431V5.77197C78.0011 5.90544 77.881 6.13376 77.7073 6.31256L77.6947 6.86153Z" fill="black"/>
<path id="Vector_13" fill-rule="evenodd" clip-rule="evenodd" d="M88.5475 8.078C88.4199 8.24421 88.226 8.28618 88.0657 8.31808C88.3469 7.80435 88.4812 7.08833 88.2596 6.50662C88.4065 6.45373 88.5677 6.42687 88.7078 6.34713L88.6944 6.33202L89.0621 6.01136C89.5506 5.67727 89.3626 5.04267 89.543 4.56757C89.303 4.19486 89.2299 3.7399 88.8816 3.42596L88.9017 3.41169C88.6264 3.06417 88.132 3.10446 87.7576 2.9307C87.2607 2.76366 86.8796 3.10446 86.5245 3.33194C86.3709 3.35881 86.4649 3.55859 86.2979 3.55187C86.2047 3.79866 86.0897 4.06643 86.0225 4.34092C85.3602 4.24775 84.6451 4.32078 84.1162 4.69516C83.8342 4.48698 83.4951 4.44837 83.166 4.35435C82.9251 4.30651 82.6514 4.39381 82.4777 4.26034C82.2242 3.9741 82.1688 3.45198 81.7331 3.37895C81.5795 3.32439 81.5476 3.15735 81.5476 3.00961C81.2589 2.9626 81.0037 2.82913 80.725 2.76954C80.296 2.57563 79.9552 2.8837 79.6337 3.09019C79.4927 3.14895 79.3316 3.16994 79.1989 3.24968C78.958 3.6249 78.7314 4.00516 78.5761 4.41983C78.6239 4.76063 78.77 5.06114 78.9454 5.34906C79.0982 5.78388 79.58 6.12552 79.988 6.29928C79.7941 6.99192 79.7941 7.72448 79.988 8.41713C79.988 8.41713 79.9771 8.42636 79.9771 8.42468C79.9703 8.43169 79.963 8.43814 79.9552 8.44399C79.8931 8.44399 79.8226 8.45658 79.7706 8.42468H79.7622C79.8579 9.06264 80.1584 9.62337 80.6436 10.1018C80.819 10.1623 80.7779 10.3704 80.8509 10.5031C80.8725 10.5389 80.8866 10.5787 80.8924 10.6201C80.8982 10.6615 80.8955 10.7037 80.8845 10.744C79.9005 10.7103 78.9268 10.9534 78.0741 11.4457C77.8601 11.5532 77.9532 11.8461 77.9339 12.0543C78.5224 11.6657 79.1578 11.3794 79.8604 11.251C80.1617 11.2325 80.5017 11.1578 80.7905 11.2376L80.824 11.8142C80.0283 12.2289 79.1578 12.469 78.4762 13.1514C78.4888 13.3579 78.4493 13.598 78.5098 13.7726L79.1192 13.2773C79.7076 12.8291 80.3229 12.4488 80.9986 12.2012C81.18 12.4153 81.3671 12.6436 81.6081 12.7762C82.0138 12.5153 82.4587 12.3212 82.9259 12.2012C83.1736 12.0543 83.5698 12.1878 83.7293 11.894L83.8426 11.2854C83.8241 11.272 83.809 11.2451 83.7754 11.2518C83.4623 11.0705 83.2541 10.7566 83.281 10.3898C83.1744 10.4426 83.0544 10.4771 82.9268 10.4821C82.821 10.4569 82.7194 10.4292 82.6724 10.3218C82.6666 10.1883 82.5986 9.98767 82.7337 9.88862C83.1677 9.62001 83.7301 9.60742 84.2791 9.64687C84.6862 9.70143 85.2755 9.68045 85.4173 10.1623C85.3972 10.3033 85.4098 10.4569 85.2687 10.5501C85.1218 10.6298 84.9548 10.5425 84.8205 10.4829C84.7139 10.8103 84.5334 11.178 84.1658 11.2854L84.2119 11.6715C84.2572 11.8461 84.2715 12.1332 84.546 12.0728C85.1814 12.2281 85.7447 12.5546 86.2995 12.9088C86.4876 12.7217 86.6336 12.5076 86.7671 12.3129C87.7584 12.6486 88.6138 13.3907 89.4322 14.0798L89.4641 13.5174C88.6877 12.8291 87.8256 12.3414 86.9283 11.9611C86.9618 11.7798 87.0021 11.6061 87.0097 11.4113C88.0502 11.4746 89.0608 11.7839 89.9586 12.3137L89.9451 11.8327C89.0226 11.3375 88.012 11.0101 86.909 10.9975C86.8704 10.9359 86.8536 10.8632 86.8611 10.791C87.3967 10.7045 87.7769 10.1497 87.9053 9.66702C88.1807 9.35392 88.5752 9.01227 88.482 8.54472C88.4929 8.5061 88.5064 8.46497 88.5206 8.42468C88.5559 8.30968 88.5861 8.18629 88.5475 8.078Z" fill="black"/>
<path id="Vector_14" fill-rule="evenodd" clip-rule="evenodd" d="M89.4775 9.7972L90.0257 9.6226L90.087 9.31622C90.2406 8.86713 89.9124 8.53304 89.752 8.17881L89.4775 9.7972ZM90.8609 11.9134C91.122 12.2013 91.3763 12.6621 91.8388 12.5219C91.8044 12.328 91.697 12.1669 91.6315 11.9931C91.5114 11.8538 91.4695 11.4517 91.2294 11.5927C91.0489 11.4727 91.0028 11.2721 90.8878 11.1109C90.8357 11.3594 90.8684 11.6666 90.8609 11.9134ZM90.9558 13.8726C91.0565 14.0127 91.0842 14.1941 91.1832 14.3208C91.3637 14.4409 91.6323 14.4207 91.8539 14.4014C92.0529 14.3544 92.1813 14.5743 92.3676 14.4476C92.1335 14.3007 91.9933 14.0337 91.7733 13.8382C91.5114 13.6325 91.2311 13.813 90.9558 13.8726ZM91.31 16.9809C91.7717 17.2546 92.3584 17.5223 92.9745 17.4292C93.0409 17.3956 93.155 17.4023 93.1684 17.3226C92.7865 17.1883 92.3861 16.808 91.9857 16.7274C91.7649 16.3875 91.477 16.8147 91.1958 16.7879C91.2025 16.8668 91.2823 16.9272 91.31 16.9809ZM92.7001 22.8837L92.8008 23.0969C92.9024 23.7928 93.3422 24.4333 93.1021 25.1954C93.3028 25.3373 93.3632 25.5707 93.4908 25.7579H93.5235C93.6771 25.177 93.5714 24.5743 93.4908 23.9926C93.5512 23.4646 93.0148 23.1573 92.7001 22.8837ZM92.8151 16.0383C93.1626 16.3069 93.7183 16.3321 94.1187 16.1994C93.8652 16.0592 93.584 15.904 93.3766 15.7184L92.8151 16.0383ZM94.4687 18.0906C94.436 18.3718 94.6223 18.606 94.8229 18.7471C94.8968 18.5809 95.016 18.439 95.0294 18.2518C94.9664 17.9533 94.7947 17.6888 94.5476 17.5098C94.5023 17.6961 94.4477 17.8774 94.4687 18.0906ZM94.4872 21.1394C94.4393 21.4533 94.7868 21.4945 94.9337 21.6682C95.0546 21.8151 94.854 21.9159 94.854 22.056C95.1083 22.3834 95.2561 22.7553 95.2561 23.1909C95.3551 22.7838 95.5087 22.396 95.5633 21.9755C95.5364 21.6808 95.0689 21.7421 95.1419 21.4139C95.2762 21.0798 95.1151 20.7524 95.0278 20.4502C95.0026 20.4049 94.9405 20.3109 94.8884 20.3386C94.7675 20.6114 94.467 20.8045 94.4872 21.1394ZM95.4038 19.5479L95.7513 20.2236C95.9049 20.2034 96.0048 20.0557 96.1257 19.9491C96.2189 19.6679 95.9713 19.4874 95.8991 19.2599C95.8378 19.0988 95.8991 18.8864 95.7841 18.7462C95.6968 18.6917 95.5977 18.6044 95.4978 18.6321L95.4038 19.5479ZM95.8512 17.77C96.1266 17.937 96.4405 18.1771 96.5891 18.4717C96.8224 19.1542 97.1976 19.7678 97.4713 20.4301C97.572 20.8918 97.6518 21.3031 97.7785 21.7564C97.8264 21.8781 97.7995 22.1114 97.9875 22.0913C98.0396 21.5834 98.1403 21.0949 98.1479 20.5669C97.98 20.3461 97.7601 20.2538 97.5519 20.1195V20.0725C97.5787 19.96 97.6736 19.8249 97.8129 19.8459C97.8725 19.7787 98.0539 19.7124 97.9741 19.5923C97.6258 19.2448 97.6459 18.6472 97.0919 18.5389C96.8971 18.4591 96.8501 18.2577 96.8308 18.0722C96.5689 17.8497 96.1811 17.7767 95.8512 17.77ZM96.1752 21.3929C96.5152 21.7068 96.396 22.1618 96.3691 22.5832C96.3163 22.8367 96.6361 22.689 96.7368 22.8233C96.945 23.1305 96.8241 23.5787 96.7511 23.9128C96.9324 23.6375 97.1389 23.3983 97.2791 23.0961C97.2732 22.9836 97.4201 22.929 97.4134 22.7888C97.473 22.5958 97.2463 22.6822 97.1515 22.6629C97.0717 22.6419 96.9853 22.5882 97.0121 22.4816C97.1842 22.1475 97.0247 21.7463 96.9576 21.4122C96.8778 21.1377 96.992 20.7701 96.8636 20.5291C96.6495 20.8246 96.0132 20.8918 96.1752 21.3929ZM96.7956 16.6477C97.3916 17.2495 97.8264 17.8539 98.4685 18.4356C98.482 18.1754 98.4484 17.9345 98.4349 17.6802C98.3418 17.4997 98.1672 17.3671 98.0194 17.2319C97.5443 17.1866 97.2975 16.5469 96.7956 16.6477ZM98.3535 19.8324C98.3678 19.8937 98.3955 19.9466 98.4224 20.0053C98.6826 20.4334 98.931 20.8758 99.1115 21.3367C99.057 20.8414 99.3919 20.2269 98.9495 19.8459C98.8899 19.6838 98.691 19.7384 98.5617 19.751L98.3535 19.8324ZM99.9618 24.7153C100.149 24.8026 100.39 24.649 100.57 24.5424C100.738 24.5021 100.878 24.5961 101.006 24.6826C101.059 24.7892 101.006 24.8899 101.026 24.9906C101.427 25.1031 101.821 25.2509 102.176 25.4851L102.289 25.3709C102.316 25.0846 102.09 24.8756 101.874 24.7161C101.735 24.6356 101.526 24.6826 101.427 24.5558C101.494 24.4484 101.494 24.2872 101.487 24.168C101.265 24.168 101.125 24.1 100.946 23.9942C100.831 23.9607 100.73 23.8667 100.637 23.9942C100.303 24.2209 100.283 24.555 99.9618 24.7153ZM100.43 16.3044C100.596 16.2565 100.771 16.2095 100.911 16.0895C101.36 15.6815 102.008 15.9552 102.531 15.9493C102.423 15.7671 102.3 15.5946 102.162 15.4339C101.974 15.3609 101.8 15.2744 101.587 15.2744C101.131 15.0058 100.825 15.4549 100.476 15.6748C100.382 15.8553 100.335 16.123 100.43 16.3044ZM100.443 17.6802C100.443 17.6592 100.443 17.6382 100.463 17.634C100.524 17.6869 100.456 17.8153 100.557 17.8405C100.731 17.754 100.892 17.634 101.052 17.5198C101.5 17.5198 101.768 17.085 102.209 17.085C102.946 17.2193 103.675 17.3671 104.317 17.7263C104.271 17.294 103.895 16.8978 103.514 16.7048C103.299 16.6309 103.132 16.7442 102.979 16.8642C102.531 17.1463 102.765 16.4571 102.452 16.4437C102.043 16.5696 101.621 16.7115 101.166 16.6703C100.899 16.7711 100.711 17.0179 100.409 16.991C100.397 17.2126 100.364 17.4812 100.443 17.6802ZM100.749 19.1701C100.889 19.3187 101.123 19.2918 101.325 19.3187L101.907 19.0904C101.913 18.9855 101.733 18.9561 101.773 18.8369C101.934 18.6564 102.154 18.784 102.355 18.711C102.635 18.669 102.923 18.3903 103.205 18.596C103.196 18.6295 103.217 18.6757 103.19 18.7101C103.104 18.9175 103.251 19.0442 103.411 19.1248C103.739 19.1844 104.046 19.4857 104.375 19.3514C104.341 19.0769 104.269 18.8243 104.201 18.5624C103.926 18.5162 103.733 18.2887 103.478 18.1947C103.366 18.3013 103.217 18.3819 103.077 18.3685C102.561 18.2476 101.945 17.9269 101.423 18.2543C101.236 18.4826 100.901 18.4155 100.647 18.5145C100.662 18.742 100.689 18.9636 100.749 19.1701ZM100.97 23.1439C100.93 23.2581 100.816 23.4444 101.025 23.4982C101.452 23.5116 102.001 23.2908 102.335 23.6249C102.449 23.7122 102.394 23.8935 102.388 24.006L102.949 24.4744C103.003 24.1923 103.105 23.938 103.111 23.6375C103.069 23.4155 102.947 23.2163 102.77 23.0768C102.401 23.0768 102.188 22.6461 101.792 22.699C101.585 22.6537 101.405 22.8367 101.197 22.8367C101.104 22.9299 101.05 23.044 100.97 23.1439ZM101.131 19.9919C101.218 20.1724 101.319 20.467 101.485 20.4863C101.881 20.3142 102.457 20.206 102.898 20.394C103.044 20.4192 103.044 20.5871 103.012 20.6937C103.239 20.828 103.513 20.9346 103.754 21.0806L103.687 20.6794C103.674 20.2454 103.126 20.206 103.092 19.777C102.644 19.631 102.142 19.584 101.667 19.6973C101.513 19.8375 101.291 19.819 101.105 19.8584C101.092 19.9113 101.124 19.9457 101.131 19.9919ZM101.245 22.1593C101.506 22.0846 101.674 21.7983 101.955 21.7715C102.383 21.7782 102.764 21.9528 103.032 22.3213C103.193 22.4262 103.159 22.7007 103.367 22.7007C103.305 22.3733 103.413 22.0737 103.399 21.7379C103.12 21.2703 102.423 21.6321 102.162 21.0832L101.668 21.1167C101.312 21.204 101.406 21.6187 101.36 21.8999C101.319 21.9855 101.239 22.0527 101.245 22.1593ZM103.702 25.083C103.909 25.4976 104.365 25.8116 104.411 26.2859C104.517 26.1599 104.592 26.0122 104.664 25.872C104.658 25.7377 104.504 25.7377 104.444 25.6311C104.383 25.4573 104.476 25.3037 104.504 25.1501C104.417 24.9025 104.208 24.6691 103.976 24.5206L103.702 25.083ZM104.526 24.027L105.007 24.6826C105.213 24.3552 105.213 23.8734 105.133 23.4788C105.087 23.405 104.999 23.2849 104.88 23.3395C104.7 23.5259 104.672 23.8138 104.526 24.027ZM102.563 5.73023C102.737 5.81669 102.904 5.89727 103.113 5.91071C103.252 5.83684 103.434 5.78311 103.607 5.83096C103.855 5.99129 104.156 5.79738 104.443 5.81081C104.189 5.5699 103.9 5.42216 103.607 5.28198C103.232 5.36173 102.932 5.6295 102.563 5.73023ZM105.18 6.35727C105.534 6.39085 105.789 6.70479 106.029 6.96501C106.33 7.01118 106.557 7.22523 106.738 7.446L106.625 7.0926C106.545 6.73753 106.323 6.46304 106.096 6.18268C105.775 6.20282 105.46 6.2322 105.18 6.35727Z" fill="black"/>
<path id="Vector_15" fill-rule="evenodd" clip-rule="evenodd" d="M80.2095 3.42505L80.4043 3.44603C80.9247 3.70625 81.7675 3.84056 81.8162 4.59603C81.2865 4.80337 80.7778 5.0829 80.3556 5.511C80.0366 5.18363 79.3869 5.3641 79.2786 4.7891C79.3802 4.24684 79.5724 3.56439 80.2095 3.42505ZM80.7115 6.81545C81.3209 6.76089 81.9094 6.84735 82.5389 6.79447C82.6917 6.86162 82.852 6.99425 82.9259 7.1487C82.9049 7.8706 82.685 8.55892 82.6522 9.30096C82.3777 9.41428 82.1091 9.6426 82.042 9.94228C81.7952 10.0161 81.5736 10.1622 81.3318 10.2764C81.2269 10.0497 81.2454 9.70808 81.4334 9.52089C81.6945 9.15322 82.371 9.23884 82.3173 8.65713C82.4911 8.3776 82.3249 8.01582 82.3299 7.72286C82.2628 7.50125 82.1956 7.79589 82.089 7.78917C81.8758 7.8345 81.655 7.84793 81.4678 7.74133C81.3268 7.59359 81.1539 7.47271 81.1127 7.27377C80.9247 7.1806 80.7048 7.0337 80.6108 6.83979L80.7115 6.81545ZM81.4485 11.172C81.7339 11.214 82.0361 11.0847 82.2837 11.2266C82.2317 11.3206 82.0907 11.36 81.9765 11.3869L81.5274 11.5934C81.3612 11.554 81.4544 11.2862 81.4485 11.172ZM82.6178 5.59158C82.9049 5.49757 83.2138 5.3045 83.521 5.39684C83.3011 5.61844 83.1265 5.90468 82.9603 6.17246L82.0437 6.15315C82.1444 5.9114 82.3979 5.71246 82.6178 5.59158ZM85.3014 5.37165C85.6817 5.3045 85.6615 5.79976 86.0091 5.81738C86.0712 5.89797 86.1585 5.971 86.1241 6.09187C85.9226 6.17162 85.6288 6.13384 85.4013 6.18589C85.0991 6.01801 85.2947 5.49757 84.8196 5.53114C84.7927 5.48917 84.7399 5.41027 84.8053 5.38341C84.9531 5.33052 85.1478 5.34983 85.3014 5.37165ZM85.0614 7.16213C85.2292 6.92709 85.4836 6.90863 85.7245 6.86162L87.4579 6.89436C87.5309 6.96151 87.3907 7.02195 87.3907 7.10169C87.2841 7.20242 87.1297 7.23012 87.0357 7.32246C86.8082 7.32917 86.8283 7.59695 86.668 7.71111C86.4204 7.9579 86.0586 7.84374 85.7707 7.80512C85.6708 7.73041 85.5566 7.63052 85.5088 7.5172L85.429 7.59695C85.5298 7.97217 85.5037 8.386 85.5776 8.76709L85.9923 9.04074C85.999 9.6552 86.7217 9.48815 87.0357 9.82979C86.9618 10.0514 86.8149 10.2378 86.6546 10.4249C86.413 10.1925 86.1228 10.0165 85.8051 9.90954C85.7782 9.55027 85.3829 9.33538 85.1638 9.15574C85.1025 8.49932 85.0891 7.83114 84.9825 7.19655L85.0614 7.16213ZM85.6909 11.2862H86.4942L86.3935 11.7067L85.5894 11.3668C85.5709 11.2996 85.6431 11.2803 85.6909 11.2862ZM87.1347 3.71297L87.7307 3.52578C88.0723 3.68527 88.393 3.88673 88.7069 4.11337C88.9546 4.56833 88.9151 5.18279 88.801 5.69147C88.6205 5.89125 88.2251 5.69147 88.0791 6.01129H88.0514C87.8306 5.38425 87.2019 4.821 86.6193 4.5356C86.7133 4.2141 86.8141 3.89932 87.1347 3.71297Z" fill="#EAEAEA"/>
</g>
</g>
</g>
</g>
</g>
</g>
<defs>
<clipPath id="clip0_0_1">
<rect width="1440" height="8546" fill="white" transform="translate(-90 -1415)"/>
</clipPath>
<clipPath id="clip1_0_1">
<rect width="115" height="29.3796" fill="white" transform="translate(0 0.565186)"/>
</clipPath>
</defs>
</svg>
