<svg width="76" height="24" viewBox="0 0 76 24" fill="none" xmlns="http://www.w3.org/2000/svg">
<g clip-path="url(#clip0_1_396)">
<path d="M49.983 7.84042C49.6433 7.84042 49.3652 7.54785 49.3962 7.22602V7.16751C49.4888 5.79242 48.9946 5.00248 47.3884 5.00248H42.3843L41.0561 10.7661H48.2223C48.593 10.7661 48.8711 11.088 48.7784 11.4391L48.0679 14.4233C48.0061 14.6866 47.7899 14.8622 47.5119 14.8622H40.0985C40.0985 14.8622 39.2645 18.4022 39.2336 18.5485C38.9556 19.6896 39.7896 20.2748 40.3456 20.538C40.3765 20.538 40.4074 20.5673 40.4383 20.5673C40.6854 20.655 40.8089 20.9183 40.7472 21.1524L40.3765 22.7909C40.3147 23.0248 40.0985 23.2297 39.8205 23.2297H31.0788C30.7082 23.2297 30.4302 22.9079 30.5228 22.5568L34.3222 6.23128C34.7238 4.79768 33.828 4.21254 33.1793 3.97848C33.1484 3.97848 33.1484 3.97848 33.1176 3.94922C32.8395 3.86146 32.6542 3.56888 32.7469 3.27631L33.0866 1.8427C33.1484 1.57939 33.3955 1.37459 33.7044 1.37459H53.1337C53.5044 1.37459 53.7824 1.69642 53.6897 2.04751L52.4233 7.40157C52.3615 7.66488 52.1453 7.84042 51.8673 7.84042H49.983ZM20.7928 1.8427C20.8546 1.57939 21.1017 1.37459 21.4106 1.37459H30.8936C31.2642 1.37459 31.5422 1.69642 31.4495 2.04751L31.1406 3.42259C31.0788 3.65665 30.8936 3.8322 30.6155 3.86146H30.5537C29.8433 3.94922 28.5459 4.18328 27.4958 4.94396L19.5881 11.1757L25.6732 18.9581C26.847 20.3918 27.434 20.655 28.6077 20.655C29.0093 20.655 29.2873 21.0061 29.1947 21.3572L28.8548 22.7616C28.7931 22.9957 28.5769 23.1711 28.2988 23.1711H23.5728C18.3217 23.1711 16.9007 21.0061 12.5145 13.4285L11.248 18.9289C11.0627 19.7774 11.804 20.2455 12.36 20.4502C12.391 20.4502 12.4218 20.4795 12.4218 20.4795C12.6999 20.5672 12.8234 20.8306 12.7616 21.0939L12.391 22.7031C12.3291 22.9372 12.1129 23.1419 11.8349 23.1419H0.900154C0.529488 23.1419 0.220597 22.7909 0.313264 22.4398L0.622156 21.0646C0.683934 20.8013 0.900154 20.6258 1.17816 20.5965H1.20905C2.22839 20.4795 3.27862 19.8944 3.92729 16.9394L6.39843 6.17276C6.70732 4.73917 5.96598 4.18328 5.31731 3.94922C5.31731 3.94922 5.28642 3.91996 5.22464 3.91996C4.91575 3.8322 4.7613 3.53962 4.82308 3.24705L5.16286 1.81345C5.22464 1.55014 5.47175 1.34534 5.78065 1.34534H16.2212C16.5918 1.34534 16.8698 1.66716 16.7772 1.989L16.4065 3.45185C16.3447 3.65665 16.1903 3.8322 15.9741 3.89071C15.9431 3.89071 15.9123 3.91996 15.8814 3.91996C15.3872 4.06625 14.615 4.44659 14.3987 5.38283L13.0088 11.3805L21.1017 5.00248C21.5959 4.62214 21.4724 4.12477 20.9163 3.91996C20.6074 3.8322 20.4221 3.51037 20.4839 3.21779L20.7928 1.8427ZM75.2812 1.8427C75.621 1.93048 75.8373 2.25231 75.7446 2.60339L74.509 7.84042C74.4472 8.10374 74.231 8.27928 73.9531 8.27928H72.1923C71.8526 8.27928 71.6054 8.01596 71.6054 7.69414V7.60637C71.6981 5.90946 70.5553 4.62214 67.9605 4.62214C63.6669 4.62214 60.5471 7.95746 60.1455 12.3461C59.7131 16.8809 63.0492 19.4848 67.6825 19.4848C70.061 19.4848 71.9143 19.0459 72.9645 18.7241C73.397 18.607 73.7985 18.9289 73.7059 19.3385L73.1499 22.0594C73.119 22.2935 72.9337 22.469 72.6866 22.5568C71.729 22.8494 69.0725 23.5222 65.026 23.5222C55.3578 23.5222 51.4348 18.2559 52.0526 12.9019C52.5778 8.133 55.9446 1.08202 69.1034 1.08202C71.6672 1.02351 73.675 1.43311 75.2812 1.8427Z" fill="#EAEAEA"/>
</g>
<defs>
<clipPath id="clip0_1_396">
<rect width="76" height="23.31" fill="white" transform="translate(0 0.600098)"/>
</clipPath>
</defs>
</svg>
