<svg width="82" height="38" viewBox="0 0 82 38" fill="none" xmlns="http://www.w3.org/2000/svg">
<g clip-path="url(#clip0_1_401)">
<path fill-rule="evenodd" clip-rule="evenodd" d="M36.3099 19.3064C36.3099 29.3651 28.312 37.506 18.4645 37.506C8.60172 37.506 0.619064 29.3651 0.619064 19.3064C0.619064 9.24722 8.60172 1.09888 18.4645 1.09888C28.312 1.09888 36.3099 9.24722 36.3099 19.3064ZM19.1776 4.07119C18.991 4.06177 18.6364 4.04999 18.467 4.04999C10.23 4.04999 3.52629 10.896 3.52629 19.2998C3.52629 23.3817 5.07997 27.2077 7.89413 30.0849C10.7199 32.9554 14.4695 34.5416 18.467 34.5416C22.4493 34.5416 26.198 32.9554 29.0186 30.0849C31.8397 27.2077 33.4008 23.3817 33.4008 19.2998V18.6215H32.7964H22.7323V20.0252H31.9778C31.9778 20.0559 31.9778 20.2048 31.9713 20.2434C31.5013 27.4279 25.6237 33.118 18.467 33.118C14.8444 33.118 11.4475 31.68 8.891 29.0682C6.32614 26.4672 4.91282 23.0023 4.91282 19.2994C4.91282 15.6176 6.32614 12.1346 8.891 9.52577C11.4475 6.91913 14.8444 5.48102 18.467 5.48102C18.6231 5.48102 19.0026 5.48102 19.1776 5.49044V4.07119ZM14.9018 13.4934C14.9018 14.693 13.9479 15.6753 12.7645 15.6753C11.5811 15.6753 10.6272 14.6939 10.6272 13.4934C10.6272 12.2928 11.5811 11.3068 12.7645 11.3068C13.9479 11.3068 14.9018 12.2928 14.9018 13.4934ZM17.7446 27.2886V11.3157H19.1781V25.8524H22.7186V27.2886H17.7446Z" fill="#EAEAEA"/>
<path d="M49.7299 7.22749H44.3675V30.9264H60.8379V26.3132H49.7299V7.22749ZM72.6343 21.8952H77.0017V26.0388C76.1964 26.3518 74.6262 26.6639 73.1321 26.6639C68.3057 26.6639 66.698 24.1614 66.698 19.0788C66.698 14.2318 68.2291 11.374 73.0554 11.374C75.7375 11.374 77.2694 12.2347 78.5318 13.8774L81.8659 10.748C79.8353 7.7785 76.2722 6.87915 72.9409 6.87915C65.4315 6.87915 61.4871 11.0629 61.4871 19.0392C61.4871 26.9768 65.0492 31.278 72.903 31.278C76.503 31.278 80.0273 30.34 81.9416 28.9717V17.4753H72.6343V21.8952Z" fill="#EAEAEA"/>
</g>
<defs>
<clipPath id="clip0_1_401">
<rect width="82" height="37.1094" fill="white" transform="translate(0 0.700195)"/>
</clipPath>
</defs>
</svg>
