<svg width="99" height="33" viewBox="0 0 99 33" fill="none" xmlns="http://www.w3.org/2000/svg">
<g clip-path="url(#clip0_1_382)">
<path d="M0.744057 22.2339V0.958252H4.37256V22.2339H0.744057Z" fill="#EAEAEA"/>
<path d="M13.6617 6.79858C9.00943 6.79858 5.79005 10.4828 5.79005 14.6998C5.79005 19.4062 9.29243 22.6484 13.6978 22.6484C17.8789 22.6484 21.5071 19.4658 21.5071 14.6896C21.5071 10.6733 18.5005 6.79858 13.6617 6.79858ZM13.619 10.4039C16.0536 10.4039 17.8457 12.3559 17.8457 14.7133C17.8457 17.2129 15.8699 19.0362 13.6847 19.0362C11.1027 19.0362 9.47771 16.9284 9.47771 14.7201C9.47771 12.2995 11.3123 10.4039 13.619 10.4039Z" fill="#EAEAEA"/>
<path d="M30.6216 6.79858C25.9694 6.79858 22.75 10.4828 22.75 14.6998C22.75 19.4062 26.2524 22.6484 30.6578 22.6484C34.8389 22.6484 38.467 19.4658 38.467 14.6896C38.467 11.877 37.2844 10.6291 37.2844 10.6291L38.2902 10.2739V7.24065H33.1367C33.1367 7.24065 32.0194 6.79858 30.6216 6.79858ZM30.579 10.4039C33.0136 10.4039 34.8057 12.3559 34.8057 14.7133C34.8057 17.2129 32.8299 19.0362 30.6447 19.0362C28.0627 19.0362 26.4377 16.9284 26.4377 14.7201C26.4377 12.2995 28.2723 10.4039 30.579 10.4039Z" fill="#EAEAEA"/>
<path d="M34.7831 23.2737C34.7831 25.7734 32.8073 27.6105 30.6221 27.6105C28.0401 27.6105 26.4087 25.4822 26.4087 23.2737H22.7275C22.7275 27.9804 26.2299 31.2229 30.6353 31.2229C34.8163 31.2229 38.4445 28.0502 38.4445 23.2737H34.7831Z" fill="#EAEAEA"/>
<path d="M39.9224 22.2336V7.24097H43.551V22.2336H39.9224Z" fill="#EAEAEA"/>
<path d="M47.073 22.2328V10.5983H45.1274V7.24017H47.073V2.63623H50.7016V7.24017H52.6998V10.5983H50.7016V22.2328H47.073Z" fill="#EAEAEA"/>
<path d="M44.131 2.98261C44.131 4.34953 43.0552 5.45764 41.7282 5.45764C40.4011 5.45764 39.3254 4.34953 39.3254 2.98261C39.3254 1.61568 40.4011 0.507568 41.7282 0.507568C43.0552 0.507568 44.131 1.61568 44.131 2.98261Z" fill="#EAEAEA"/>
<path d="M60.8574 6.78882C56.1832 6.78882 53.1698 10.475 53.1698 14.8355C53.1698 19.3418 56.1933 22.6589 60.933 22.6589C65.3545 22.6589 67.5294 19.8153 67.5294 19.8153L65.1039 17.3136C65.1039 17.3136 63.2724 19.3481 60.9791 19.3481C59.0672 19.3481 57.5387 18.2491 57.0055 16.2336H68.3117V15.2045C68.3117 11.0982 66.0042 6.78882 60.8574 6.78882ZM60.7424 10.0793C62.4139 10.0793 64.1233 11.0003 64.5057 13.2005H56.9068C57.2078 11.6539 58.5214 10.0793 60.7424 10.0793Z" fill="#EAEAEA"/>
<path d="M77.3895 22.6604C72.702 22.6604 69.508 18.9833 69.508 14.6476C69.508 10.1732 73.1178 6.78564 77.3744 6.78564C81.4894 6.78564 83.5957 9.77766 83.5957 9.77766L81.0645 12.3729C81.0645 12.3729 79.5982 10.4217 77.3572 10.4217C74.8734 10.4217 73.1751 12.3787 73.1751 14.705C73.1751 17.1612 74.9817 19.0458 77.3292 19.0458C79.6064 19.0458 81.0609 17.0976 81.0609 17.0976L83.6174 19.6915C83.6174 19.6915 81.5316 22.6604 77.3895 22.6604Z" fill="#EAEAEA"/>
<path d="M84.9343 22.2437V0.903076H88.5632V8.74372C88.5632 8.74372 89.9526 6.78521 92.9747 6.78521C96.7742 6.78521 98.9753 9.69429 98.9753 13.415V22.2437H95.3464V13.9798C95.3464 11.4802 93.8358 10.4432 92.1622 10.4432C90.2547 10.4432 88.5632 11.5611 88.5632 14.1733V22.2437H84.9343Z" fill="#EAEAEA"/>
</g>
<defs>
<clipPath id="clip0_1_382">
<rect width="99" height="31.56" fill="white" transform="translate(0 0.475098)"/>
</clipPath>
</defs>
</svg>
