<svg width="105" height="45" viewBox="0 0 105 45" fill="none" xmlns="http://www.w3.org/2000/svg">
<g clip-path="url(#clip0_1_360)">
<path d="M37.9361 44.0825C37.7242 44.1182 36.0595 44.43 34.3123 44.4755C31.1937 44.5594 28.4759 43.3481 28.4505 41.1623C28.4099 37.3746 32.3521 35.2959 35.2627 34.718C36.567 34.4593 39.078 34.1747 41.58 34.7735L40.126 38.1583C39.7098 37.2366 38.6352 37.2181 38.1962 37.2107C37.1342 37.1898 36.2549 37.4608 35.6066 37.7492C34.1373 38.4035 32.8583 40.5031 34.9366 41.3101C36.0899 41.7586 37.5605 41.4013 39.0919 41.166L37.9348 44.0825H37.9361Z" fill="#EAEAEA"/>
<path d="M98.7408 34.6326L96.235 41.2431C96.27 40.5777 96.405 37.9483 96.49 36.434C96.525 35.8105 96.3842 35.3349 96.0783 35.0183C95.7042 34.6375 95.2133 34.6326 95.2067 34.6326H89.6233L85.975 44.2644H90.0275L92.6158 37.4432L92.31 44.2644H99.1058L102.758 34.6326H98.7392H98.7408Z" fill="#EAEAEA"/>
<path d="M77.8562 41.0657H73.149L75.5864 34.6326H70.9122L67.258 44.2656H76.6433L77.8562 41.0657Z" fill="#EAEAEA"/>
<path d="M67.338 37.156L68.301 34.6326H58.2838L54.6322 44.2656H64.7636L65.7444 41.6658H60.1528L60.5626 40.595H65.7824L66.6769 38.2244H61.4597L61.8581 37.156H67.338Z" fill="#EAEAEA"/>
<path d="M51.9236 44.2663L55.579 34.6345H51.0113L49.6867 38.1031H47.2697L48.5842 34.6345H44.0012L40.3598 44.2663H44.9275L46.1722 41.0036H48.5943L47.3496 44.2663H51.9236Z" fill="#EAEAEA"/>
<path d="M24.9613 44.2663L28.6116 34.6345H23.8079L20.1538 44.2663H24.9613Z" fill="#EAEAEA"/>
<path d="M17.4487 44.2663L21.0989 34.6345H14.3122L10.8039 39.8072C10.8039 39.8072 11.0273 37.1001 11.0831 36.4495C11.1237 35.953 11.0615 34.6345 9.81684 34.6345H4.25061L0.597748 44.2663H4.95226L7.5977 37.2997L7.0407 44.2663H10.9105L15.6558 37.4217L13.0649 44.2663H17.4487Z" fill="#EAEAEA"/>
<path d="M83.2664 44.2663L86.9158 34.6345H82.1131L78.459 44.2663H83.2664Z" fill="#EAEAEA"/>
<path d="M6.38275 29.0134L5.47049 31.4214H103.98L104.893 29.0134H6.38275Z" fill="#EAEAEA"/>
<path d="M53.2933 29.0136C53.3669 28.9902 53.438 28.9656 53.5027 28.9458C53.5027 28.9458 53.6245 28.9052 53.6638 28.8929C54.368 28.6699 55.9768 27.8493 56.5719 26.7119C57.7735 26.2659 58.6617 25.6744 59.2148 24.9549C60.259 24.7799 61.0698 24.3351 61.5101 24.0924C62.5505 23.5206 63.2838 22.9575 63.7533 22.3723C64.1378 21.8929 64.3725 21.5246 64.5514 21.1216C64.9079 20.9405 65.3076 20.7039 65.8316 20.3638C67.6548 19.176 68.0418 17.0148 68.0799 16.7684C68.0875 16.7167 68.0964 16.6637 68.1015 16.6119C68.1941 16.6193 68.2868 16.6205 68.3768 16.6205C70.2115 16.6205 72.6019 15.5029 73.8898 14.9016L73.91 14.893C74.1093 14.8006 74.2793 14.7205 74.3643 14.6848C74.7957 14.5099 75.6737 14.0502 76.5847 13.4551C77.7405 12.701 78.5373 11.9975 78.9523 11.3641C79.0195 11.2606 79.074 11.151 79.1096 11.0351L79.8594 10.5842C80.0777 10.4535 80.2591 10.2552 80.3783 10.0211C80.5827 9.91019 80.7578 9.8079 80.811 9.77585C81.4137 9.41362 81.6637 8.77041 81.4479 8.13465L81.4403 8.1149C81.2463 7.56782 80.7184 6.88643 79.8493 6.69298C79.5308 6.05718 78.8824 5.66658 78.1313 5.66658C77.9549 5.66658 77.8128 5.68753 77.7278 5.70478C77.6783 5.71464 77.4931 5.75776 76.053 6.09292L73.9328 6.58578C74.1168 6.06704 74.094 5.52982 73.858 5.06652C73.5624 4.48864 72.9724 4.11529 72.3558 4.11529C72.1363 4.11529 71.9257 4.16211 71.729 4.25206L71.7099 4.26068C71.6288 4.29888 71.4778 4.37158 67.7018 6.75089C67.6523 6.78169 67.6053 6.81496 67.5623 6.85193C65.725 8.40689 65.0589 9.31748 64.9016 9.55533C64.814 9.67971 64.6656 9.91262 64.5311 10.2083C64.4347 10.1603 64.3357 10.1159 64.2405 10.0741C63.478 9.74753 62.6901 9.58114 61.892 9.58114C60.4443 9.58114 59.4217 10.1282 59.1476 10.2921C59.0029 10.3722 58.4675 10.6839 57.6415 11.2988C57.3167 11.5403 57.0185 11.8274 56.7559 12.1515C56.2078 12.2722 55.7612 12.4163 55.4262 12.5839C55.0063 12.7922 54.5863 13.1138 54.1371 13.4551L54.1104 13.476C54.0343 13.5352 53.9569 13.5943 53.8783 13.6523C53.6879 13.7964 53.2008 14.1932 52.7186 14.8339L52.664 14.845C52.5968 14.8585 51.9941 14.9879 51.2481 15.339C51.0615 15.4278 50.8738 15.5251 50.6911 15.6335C50.2622 15.6471 49.5872 15.7186 48.7155 15.9712L48.6788 15.9638C48.6052 15.949 47.9453 15.8245 47.127 15.8245C46.7793 15.8245 46.4482 15.848 46.1463 15.8935C45.947 15.9207 45.2555 16.023 44.6871 16.1843C44.413 16.2632 43.7038 16.4936 42.9083 16.9902C41.1839 16.6033 39.4318 16.4739 38.3406 16.432C39.3784 15.0803 39.8898 13.5068 39.7198 12.1576C39.3975 9.62306 37.6275 8.12842 36.9944 7.67008C35.8918 3.23553 32.7223 1.35155 30.0908 1.06199C29.5732 0.479176 28.5823 0.119385 27.4733 0.119385C27.0242 0.119385 26.5827 0.177296 26.1588 0.290655C24.7593 0.667698 23.6504 1.70518 23.4322 2.83261C22.0277 3.96127 19.8504 6.49213 20.4518 11.0536C19.9228 11.7485 18.9064 13.5118 19.6004 16.1683C20.0763 17.9943 21.2423 19.3103 22.9868 20.0004C21.6254 20.6361 20.4353 21.4087 19.4457 22.302C19.3848 22.3562 19.3264 22.4105 19.2668 22.4659C16.9144 22.5891 14.7765 23.5379 13.0813 25.2136C11.8595 26.4199 11.0488 27.795 10.5158 29.0173H53.2933V29.0136Z" fill="black"/>
<path d="M53.2217 27.5512C52.7332 27.7065 51.873 28.0404 50.6816 28.0404H50.5725C49.3252 28.0194 47.8712 27.391 46.8092 26.2648C45.7472 25.1387 45.1674 23.4173 45.3323 21.7391C45.496 20.0597 46.5364 18.6574 47.7938 17.8812C48.0843 17.7013 48.3902 17.567 48.687 17.4635C48.8139 17.4192 48.9382 17.381 49.0601 17.344C49.0372 17.376 49.0144 17.4068 48.9928 17.4376C47.705 19.2945 47.7951 21.6541 48.4231 23.06C48.7505 23.7919 49.1273 24.4043 49.5752 24.9291C50.169 25.6266 50.8833 26.1588 51.6966 26.5101C52.449 26.8353 53.2432 27.0005 54.0566 27.0005C54.1428 27.0005 54.2278 26.998 54.3154 26.9942C53.9322 27.2469 53.5199 27.4551 53.223 27.5488" fill="#EAEAEA"/>
<path d="M55.7941 25.49C55.3107 25.6538 54.7181 25.7906 54.0571 25.7906C53.4823 25.7906 52.8568 25.6871 52.2046 25.4049C50.8052 24.8 50.0375 23.6307 49.5681 22.5796C49.0973 21.5274 48.9883 19.615 50.0273 18.1167C50.5894 17.3047 51.4053 16.8192 52.0358 16.542C51.621 17.72 51.4332 19.5484 52.7616 21.7245L52.7705 21.7392L52.7794 21.754C53.4518 22.7842 54.3248 23.5789 55.3766 24.1161C55.9996 24.4352 56.6708 24.6508 57.3522 24.7556C56.8662 25.0834 56.2939 25.3199 55.7928 25.4887" fill="#EAEAEA"/>
<path d="M60.795 22.8644C60.2291 23.1748 59.4399 23.5901 58.4388 23.6185C58.3932 23.6185 58.3487 23.6185 58.3031 23.6185C56.811 23.6185 55.0106 22.9235 53.8255 21.1073C51.7332 17.6794 54.0234 15.3297 54.7695 14.7678C55.225 14.424 55.6703 14.0667 56.0217 13.8745C55.8581 14.3267 55.7921 14.6767 55.7743 14.7937C55.6183 15.6574 55.7578 16.7639 56.1474 17.7571C56.6612 19.0705 57.5672 20.1278 58.7662 20.8152C59.7393 21.3735 60.7455 21.6569 61.7542 21.6569C62.0321 21.6569 62.2897 21.6346 62.5243 21.6002C62.0523 22.1349 61.2733 22.5994 60.7937 22.8631" fill="#EAEAEA"/>
<path d="M16.071 29.0141C16.175 28.2513 16.3857 27.3295 16.798 26.3424C17.1457 25.5156 17.5923 24.738 18.1391 24.0171C16.6229 24.3214 15.2742 25.051 14.1145 26.1958C13.3329 26.9673 12.6541 27.9346 12.1148 29.0141H16.071Z" fill="#EAEAEA"/>
<path d="M42.4584 29.0129C42.1957 28.7887 41.9762 28.5706 41.7872 28.3821C40.8863 27.4838 40.1797 25.8956 39.9487 24.7891C39.5718 22.9902 39.8257 21.2441 40.7037 19.598C40.9777 19.0817 41.3228 18.611 41.7327 18.1884C39.7647 17.8446 37.8857 17.815 37.2766 17.8163C37.2107 17.9469 37.1168 18.0726 36.981 18.1872C36.2793 18.7786 35.6842 18.9376 36.0903 18.4817C36.4976 18.0233 36.4709 17.5366 36.3592 17.4282C36.2628 17.3345 36.103 17.4035 35.9989 17.4257C34.8342 17.8323 34.6223 17.6586 34.8545 17.5181C35.9 16.8946 36.5027 16.3463 36.844 15.9865C37.7118 15.0255 38.4439 13.6121 38.2802 12.3258C38.0874 10.8151 37.2005 9.63715 36.3187 8.93729C36.2349 8.87198 36.1423 8.80425 36.0967 8.7722C36.0713 8.75375 36.0459 8.73651 36.0205 8.71919C36.0167 8.71676 36.0129 8.71426 36.0103 8.71183C36.0103 8.71183 36.0103 8.71183 36.0078 8.71183C35.8657 8.61698 35.683 8.50975 35.5269 8.45804C35.2859 8.37792 35.3671 8.21898 35.6132 8.16597C35.5878 8.04399 35.5612 7.91462 35.5295 7.7951C35.4977 7.68298 35.4673 7.56838 35.4331 7.45626C34.3901 4.09121 31.9223 2.66068 29.8808 2.45367C29.8592 2.45121 29.8389 2.44751 29.8173 2.44382C29.3416 2.39699 29.018 2.40808 28.9393 2.39699C28.6069 2.3551 28.7439 2.2171 28.9482 2.1407C29.0294 2.10989 29.0345 2.05691 29.0117 2.00147C28.7706 1.65523 27.682 1.3398 26.5452 1.6466C25.9412 1.80925 25.4298 2.17273 25.1304 2.55101C25.0784 2.62617 25.0302 2.7038 24.9896 2.78759C24.9782 2.80977 24.9706 2.83441 24.9617 2.85659C24.916 2.99582 25.0835 2.9527 25.0835 2.9527C25.6227 2.84057 25.86 2.98719 25.4337 3.20406C25.1622 3.34206 24.7866 3.59835 24.5302 3.77948C23.9162 4.2403 23.1092 5.01041 22.5382 6.16248C22.0067 7.23447 21.7617 8.45925 21.8037 9.81956C21.8163 9.99946 21.8341 10.3728 21.8531 10.4874C21.8747 10.618 21.9686 10.7597 22.301 10.7178C22.7591 10.6599 23.0458 10.5859 22.6258 10.9125C22.4659 11.0382 21.9382 11.5039 21.6272 11.8724C21.0157 12.6412 20.5424 14.0471 21.0056 15.8227C21.404 17.3493 22.3886 18.3609 23.939 18.8365C24.8653 19.0965 26.9828 19.4391 28.6247 19.3454C28.7973 19.3356 28.8417 19.3663 28.8213 19.4304C28.7948 19.5093 28.6691 19.5414 28.5105 19.5635C28.2466 19.5992 27.6794 19.7052 26.7025 19.7964C26.4779 19.8161 26.3231 19.9467 26.2901 20.0588C26.2901 20.0588 26.285 20.0699 26.285 20.076C26.1721 20.4913 27.0349 20.8437 27.1364 20.8745C27.4752 20.978 27.3217 21.1419 27.1858 21.1628C26.568 21.27 25.4603 21.0273 24.8449 20.9878C24.4478 20.9632 24.142 21.0458 24.0062 21.0939C22.6118 21.6988 21.4141 22.448 20.4333 23.3327C19.3333 24.3258 18.4984 25.4927 17.9516 26.8013C17.6115 27.6132 17.4262 28.3747 17.3286 29.0179H42.4609L42.4584 29.0129Z" fill="#EAEAEA"/>
<path d="M42.6793 27.5363C43.2072 28.0624 43.7845 28.6144 44.7488 29.0124H49.0233C48.7036 28.9199 48.3877 28.8029 48.0768 28.66C47.2547 28.283 46.4959 27.7358 45.8793 27.0816C45.2348 26.3977 44.7272 25.5315 44.4125 24.5766C44.0992 23.6241 43.9837 22.6027 44.0801 21.6231C44.1765 20.6374 44.528 19.6652 45.0952 18.8125C45.4872 18.2223 45.977 17.6962 46.5327 17.2625C46.4743 17.2698 46.4147 17.276 46.3563 17.2846C46.3563 17.2846 45.6255 17.382 45.0913 17.5348C44.5584 17.6851 42.7733 18.3468 41.8103 20.1544C40.8473 21.9595 40.9576 23.5268 41.1695 24.547C41.3827 25.5672 42.031 26.8893 42.6793 27.535" fill="#EAEAEA"/>
<path d="M80.17 8.76065C80.0482 8.83453 79.8845 8.92574 79.7348 9.00577C79.731 8.99841 79.7284 8.99105 79.7247 8.9849C79.5103 8.63497 79.226 8.41687 78.8796 8.33918C78.3366 8.21601 77.654 8.42795 76.7341 9.00456C75.3943 9.84248 73.3299 10.3156 73.3083 10.3205C73.1663 10.3538 73.0774 10.4918 73.1104 10.6298C73.1383 10.7494 73.2487 10.8294 73.3693 10.8294C73.3895 10.8294 73.4086 10.827 73.4302 10.822C73.5177 10.8011 75.6048 10.3242 77.0208 9.43704C77.791 8.95528 78.3747 8.75442 78.7578 8.84068C78.9418 8.8826 79.0903 8.99105 79.2209 9.1771C79.396 9.43833 79.2336 9.55907 79.2184 9.56895C79.207 9.57631 78.5459 9.97302 78.2744 10.1369C78.1387 9.99276 77.8532 9.75743 77.4205 9.72166C76.9434 9.68346 76.4512 9.89298 75.9538 10.3476C74.7472 11.4516 73.4339 11.8127 73.4111 11.8201C73.2703 11.857 73.1853 11.9987 73.2246 12.1355C73.2563 12.2514 73.3642 12.3265 73.4809 12.3265C73.5038 12.3265 73.5266 12.324 73.5494 12.3179C73.6091 12.3031 75.0073 11.926 76.3179 10.7247C76.6948 10.3797 77.0614 10.2109 77.3748 10.2368C77.6819 10.2626 77.8658 10.4622 77.9141 10.5214C77.9255 10.5386 77.9826 10.6298 77.9217 10.7222C77.182 11.8509 74.6228 13.2876 73.8908 13.5858C73.3363 13.8137 71.1653 14.951 69.37 15.317C69.1784 15.365 68.9779 15.3934 68.7762 15.4094C68.7559 15.4118 68.7356 15.4118 68.714 15.4143C68.4539 15.4229 67.2498 15.4451 66.8895 15.0914C66.3718 14.5813 66.1853 14.9449 66.3439 15.604C65.7768 15.9379 64.9254 16.4419 64.7008 16.575C64.1133 16.9249 63.3445 16.5344 63.2125 16.5318C62.8941 16.5257 63.6478 17.4424 64.2618 17.5299C64.9292 17.6223 66.1739 16.8559 66.1739 16.8559L66.6446 16.5577V16.5602C66.6446 16.5602 66.3668 18.3185 65.0231 19.1921C64.1908 19.733 63.8418 19.8994 63.5247 20.0398C63.3229 20.1298 62.6847 20.4489 61.7559 20.4489C61.0987 20.4489 60.2968 20.2887 59.4011 19.7761C57.2327 18.5329 56.8026 16.0932 57.0056 14.9942C57.0056 14.9942 57.2467 13.3775 58.5294 12.4214C59.3846 11.7831 59.8933 11.5084 59.8933 11.5084C59.8933 11.5084 60.6902 10.997 61.8943 10.997C62.4094 10.997 63.0007 11.0906 63.6338 11.3604C63.446 11.4911 63.2823 11.6291 63.1923 11.7609C62.9448 12.1207 62.606 12.9487 62.8408 12.9451C63.0108 12.9413 63.125 12.5396 63.6985 12.2476C63.9789 12.1034 65.3213 11.3408 65.3213 11.3408C65.3213 11.3408 65.3797 11.1399 65.4368 11.018C65.4368 11.018 65.5966 10.673 65.9455 10.1899C65.9683 10.1554 66.0166 10.0901 66.094 9.99155C66.2944 9.73153 66.5457 9.44448 66.8463 9.15492C67.2118 8.78282 67.7092 8.31457 68.3714 7.75517C68.3714 7.75517 72.0839 5.41528 72.2553 5.33273C72.287 5.31917 72.3213 5.31055 72.3568 5.31055C72.6753 5.31055 73.1231 5.85023 72.5648 6.56613C72.1106 7.14894 71.5917 7.53091 71.1768 7.84142C71.0626 7.92397 70.8938 8.0361 70.7771 8.07552C70.2176 8.27023 69.469 8.69777 69.3573 8.78282C69.2292 8.87888 69.2368 9.03418 69.3903 8.96758C69.8801 8.76186 70.6731 8.56472 70.8177 8.52895C71.6628 8.34784 77.8646 6.89881 77.9801 6.8754C78.008 6.86924 78.0625 6.86184 78.1336 6.86184C78.3468 6.86184 78.6918 6.93578 78.8035 7.37196C78.8086 7.38674 78.8111 7.4003 78.8124 7.41385L73.1243 9.05878C72.9835 9.09949 72.9048 9.24362 72.948 9.3816C72.9784 9.47523 73.0584 9.54054 73.1523 9.56029C73.1942 9.56765 73.2373 9.56644 73.2792 9.55292L78.3442 8.08908C78.4457 8.0669 78.6386 8.01761 78.9989 7.89933L79.056 7.88208C79.1663 7.85127 79.2692 7.83649 79.3643 7.83649C79.8845 7.83649 80.1903 8.24676 80.2829 8.51293C80.321 8.6238 80.274 8.70019 80.1662 8.76429" fill="#EAEAEA"/>
<path d="M27.7743 13.3583C27.4406 13.5813 27.3582 13.7538 27.3112 13.8598C27.2643 13.9658 27.2706 14.0816 27.2858 14.1358C27.3023 14.1912 27.2858 14.2454 27.2313 14.2689C27.2313 14.2689 27.2262 14.2713 27.2249 14.2725C27.1716 14.2935 27.1297 14.2824 27.1057 14.2725C27.0764 14.2577 27.0549 14.2356 27.0422 14.2036C26.9458 13.9929 27.0447 13.5456 27.2883 13.3324C27.3784 13.2511 27.5078 13.16 27.6157 13.1193C27.6576 13.102 27.7819 13.0539 27.8441 13.1426C27.9062 13.2314 27.8327 13.3201 27.7756 13.3607M35.5711 11.8723C35.4987 11.8871 35.4683 11.7934 35.4289 11.6899C35.2031 11.9733 34.7413 12.4132 34.6791 12.4909C34.5737 12.6239 34.4888 12.7693 34.4063 12.9148C34.2668 13.1587 34.1335 13.4064 33.966 13.6331C33.7377 13.9424 33.4522 14.2048 33.1159 14.4007C32.4803 14.7728 31.6809 14.949 30.945 14.8332C30.5555 14.7728 30.1901 14.6324 29.8373 14.466C29.5519 14.3305 29.2524 14.1567 28.9277 14.1395C28.5686 14.1506 28.2019 14.1555 27.8441 14.1148C27.7197 14.1001 27.6144 14.0557 27.5726 13.9288C27.518 13.7625 27.636 13.5924 27.8137 13.5813C27.872 13.5813 27.9303 13.5936 27.9874 13.5974C28.1029 13.6047 28.2171 13.6134 28.3338 13.617C29.628 13.6564 30.9362 13.4569 32.1719 13.0884C32.9294 12.863 33.6678 12.55 34.3188 12.1077C34.5878 11.9253 34.8427 11.7207 35.0635 11.4842C35.0965 11.4484 35.127 11.4029 35.1625 11.3635C35.1384 11.3499 35.1143 11.3376 35.0965 11.3314C35.0318 11.3104 35.0242 11.1909 35.1486 11.1589C35.2729 11.1256 35.4417 11.1897 35.5013 11.2525C35.5609 11.3166 35.6282 11.4238 35.6472 11.5557C35.6663 11.6875 35.6535 11.8563 35.5711 11.8723ZM33.8582 12.9443C32.715 13.5419 31.4196 13.8709 30.1368 14.0397C30.4844 14.1974 30.841 14.3243 31.2254 14.3527C31.5743 14.3786 31.9232 14.3268 32.2557 14.2282C32.5957 14.1272 32.9243 13.9768 33.1972 13.755C33.475 13.5321 33.6793 13.2474 33.8569 12.9443M26.6019 10.2631C26.3938 9.88241 26.2695 9.47947 26.2061 9.05185C26.1439 8.63912 26.1211 8.20543 26.1972 7.79262C26.272 7.38723 26.4611 7.01019 26.8049 6.76623C27.0866 6.56661 27.4571 6.44463 27.8149 6.44463C27.9113 6.44463 28.0053 6.45326 28.0978 6.47174C28.9999 6.65041 29.4238 7.36999 29.7815 8.3791C30.1736 9.48562 29.9008 10.8657 29.1725 11.1687C28.9936 11.2427 28.6878 11.3203 28.6878 11.3203C28.4988 11.3745 28.3085 11.4102 28.1207 11.4102C27.9063 11.4102 27.6969 11.3635 27.4926 11.2476C27.1094 11.0296 26.8087 10.6401 26.6007 10.2619M26.9192 10.0968C27.1336 10.4886 27.4013 10.7905 27.6741 10.9445C27.8086 11.0221 27.9545 11.0591 28.1194 11.0591C28.2552 11.0591 28.4074 11.0344 28.5863 10.9839L28.5953 10.9815C28.6726 10.9605 28.9022 10.8976 29.0292 10.8447C29.2587 10.7498 29.4504 10.4344 29.5418 10.0031C29.576 9.84421 29.5925 9.67782 29.5962 9.50779C29.5379 10.0351 29.2752 10.4442 28.8819 10.5342C28.3072 10.666 27.6664 10.0685 27.4546 9.20343C27.3975 8.96809 27.3772 8.7389 27.3898 8.52574C27.5003 8.65636 27.6601 8.72167 27.8086 8.68104C28.0255 8.6231 28.1398 8.35693 28.0623 8.0908C27.9988 7.87641 27.8327 7.72608 27.655 7.70637C27.7743 7.54618 27.9291 7.43406 28.1118 7.39216C28.533 7.29729 28.9848 7.58685 29.2829 8.08834C29.2715 8.06246 29.2601 8.03658 29.2487 8.01071C28.9606 7.45254 28.4608 6.87589 27.5104 7.12355C26.2593 7.44761 26.5436 9.03833 26.6806 9.53118C26.7428 9.73083 26.8214 9.91931 26.9178 10.098M32.8 9.86387C32.8076 9.86638 32.8153 9.86881 32.8228 9.87124C32.8153 9.8676 32.7861 9.86145 32.7759 9.85772C32.7835 9.86015 32.7924 9.86266 32.7988 9.86509M31.3193 8.3804C31.2166 8.01934 31.0909 7.45501 31.1201 6.92025C31.1633 6.15014 31.5693 5.71519 32.0553 5.5661C32.6553 5.38374 33.2885 5.6733 33.6488 6.1218C33.8506 6.37316 34.0637 6.73419 34.2185 7.10753C34.2782 7.23198 34.3314 7.36506 34.3835 7.50799C34.537 7.93309 34.6017 8.34835 34.5788 8.73769C34.5649 8.97181 34.5205 9.18991 34.4457 9.38584C34.3644 9.60143 34.2362 9.8676 33.9837 9.99821C33.8163 10.0857 33.6387 10.1227 33.4839 10.1546L33.4763 10.1572C33.338 10.1855 33.1883 10.2114 33.0348 10.2114C32.9383 10.2114 32.8482 10.2027 32.7582 10.1818C32.7442 10.1781 32.7303 10.1744 32.715 10.1707C32.7124 10.1707 32.7112 10.1707 32.7099 10.1682C32.7023 10.1682 32.6973 10.1657 32.6909 10.1633H32.6858L32.6769 10.1596C32.2836 10.0364 32.026 9.74685 31.8268 9.47826C31.6556 9.24777 31.5376 9.00014 31.4475 8.7648L31.4449 8.75986C31.4449 8.75986 31.4247 8.70936 31.3942 8.61937C31.3752 8.56515 31.3574 8.51223 31.3422 8.45922L31.3396 8.45307V8.4457C31.332 8.42345 31.3269 8.39885 31.3206 8.37667M31.516 7.3515C31.5147 7.68665 31.5667 8.04028 31.6556 8.36437C31.7596 8.69083 31.8852 9.01122 32.092 9.29091C32.2709 9.52997 32.4803 9.76158 32.7772 9.85529C32.7746 9.85529 32.7733 9.85529 32.7733 9.85529C32.7733 9.85529 32.781 9.85772 32.8 9.86266C32.8178 9.86881 32.8241 9.87002 32.8241 9.87002H32.8228C32.8939 9.88605 32.9637 9.89349 33.0348 9.89349C33.1489 9.89349 33.2682 9.87375 33.4077 9.84421C33.5498 9.81459 33.7008 9.78375 33.8302 9.71602C33.9902 9.63347 34.0803 9.43018 34.1398 9.27488C34.2058 9.09628 34.2413 8.90772 34.2527 8.71924C34.2731 8.38404 34.2172 8.05384 34.117 7.73594C34.1196 7.7495 34.1247 7.76304 34.1259 7.7766C34.3175 8.61937 34.0561 9.39563 33.541 9.50901C33.0246 9.62481 32.4511 9.03218 32.2607 8.18941C32.21 7.96266 32.191 7.74087 32.1998 7.53509C32.3078 7.68542 32.4727 7.76428 32.6274 7.72238C32.8418 7.66817 32.9548 7.40326 32.8799 7.13587C32.8165 6.90054 32.6288 6.74035 32.4397 6.74282C32.5463 6.59372 32.6833 6.49146 32.8444 6.45572C33.1781 6.38179 33.5359 6.60358 33.7998 6.99787C33.7338 6.88081 33.6603 6.76869 33.5791 6.66149C33.3773 6.39904 33.1071 6.14768 32.767 6.07868C32.7099 6.06759 32.6516 6.06266 32.5932 6.06266C32.2938 6.06266 31.9867 6.2019 31.7989 6.42122C31.5794 6.67751 31.5185 7.02991 31.5173 7.3515" fill="black"/>
</g>
<defs>
<clipPath id="clip0_1_360">
<rect width="105" height="44.51" fill="white"/>
</clipPath>
</defs>
</svg>
