<svg width="120" height="19" viewBox="0 0 120 19" fill="none" xmlns="http://www.w3.org/2000/svg">
<g clip-path="url(#clip0_1_342)">
<path d="M98.9375 13.8402L98.7017 1.09715H102.914V17.1733H96.8417L92.6297 3.98314H92.5226L92.7583 17.1733H88.5677V1.09715H94.9174L98.8303 13.8402H98.9375ZM22.0724 2.60111L19.7418 17.3359H15.1235L18.2879 1.09715H25.8782L29.0426 17.3359H24.4457L22.1579 2.60111H22.0724ZM41.9782 13.515L44.0949 1.09715H51.0651L51.4286 17.3359H47.1524L47.0454 2.74338H46.96L44.1162 17.3359H39.7759L36.9108 2.74338H36.8253L36.7184 17.3359H32.4422L32.8271 1.09715H39.7973L41.8926 13.515H41.9782ZM7.91813 12.7631C8.08917 13.1492 8.02503 13.6573 7.96089 13.9622C7.81123 14.5109 7.42636 15.0596 6.29317 15.0596C5.22411 15.0596 4.58269 14.4703 4.58269 13.576V12.0111H0.00714111V13.2712C0.00714111 16.8888 3.00049 17.9863 6.20764 17.9863C9.30791 17.9863 11.8308 16.9904 12.2371 14.267C12.4509 12.8647 12.2799 11.9501 12.2157 11.6046C11.4887 8.21049 5.01031 7.19431 4.53993 5.28387C4.4544 4.95869 4.47578 4.61318 4.51854 4.43026C4.64683 3.92217 5.01031 3.3531 6.07936 3.3531C7.08427 3.3531 7.66155 3.94249 7.66155 4.83674V5.83261H11.9164V4.69447C11.9164 1.15812 8.58097 0.609375 6.16488 0.609375C3.12878 0.609375 0.648573 1.5646 0.199571 4.2067C0.0712843 4.93836 0.0499032 5.58873 0.242333 6.40168C0.990669 9.69416 7.04151 10.6493 7.91813 12.7631ZM63.4661 12.7224C63.6371 13.1085 63.573 13.5963 63.5088 13.9012C63.3592 14.4499 62.9957 14.9783 61.8625 14.9783C60.8148 14.9783 60.152 14.389 60.152 13.515V11.9501H55.6193V13.1898C55.6193 16.7668 58.5912 17.844 61.777 17.844C64.8345 17.844 67.3575 16.8481 67.7423 14.1654C67.9561 12.7631 67.8064 11.8688 67.7209 11.5233C66.994 8.14952 60.5796 7.15366 60.1093 5.26355C60.0238 4.93836 60.0451 4.59286 60.0879 4.43026C60.2162 3.90185 60.5796 3.3531 61.6273 3.3531C62.6109 3.3531 63.1882 3.92217 63.1882 4.81642V5.81229H67.4216V4.67415C67.4216 1.17845 64.1075 0.629699 61.7128 0.629699C58.6981 0.629699 56.2393 1.5646 55.8117 4.2067C55.6834 4.91804 55.6834 5.5684 55.8545 6.38135C56.5814 9.69416 62.5895 10.6493 63.4661 12.7224ZM77.8128 14.9174C78.9887 14.9174 79.3736 14.1451 79.4377 13.7386C79.4805 13.5557 79.4805 13.3321 79.4805 13.1085V1.09715H83.7994V12.7427C83.7994 13.0476 83.7781 13.6573 83.7567 13.7996C83.4574 16.8278 80.9344 17.8237 77.7914 17.8237C74.6484 17.8237 72.1254 16.8481 71.8261 13.7996C71.8047 13.6369 71.7833 13.0273 71.7833 12.7427V1.09715H76.1023V13.1085C76.1023 13.3118 76.1023 13.5557 76.1451 13.7386C76.252 14.1247 76.6155 14.9174 77.8128 14.9174ZM113.433 14.7345C114.674 14.7345 115.101 13.9825 115.187 13.5557C115.209 13.3727 115.23 13.1492 115.23 12.946V10.5884H113.476V8.21049H119.527V12.5598C119.527 12.8647 119.527 13.0883 119.463 13.6369C119.185 16.5839 116.491 17.6408 113.455 17.6408C110.419 17.6408 107.725 16.5839 107.447 13.6369C107.404 13.0883 107.383 12.8647 107.383 12.5598V5.73099C107.383 5.44646 107.426 4.93836 107.447 4.65382C107.832 1.62557 110.419 0.650023 113.455 0.650023C116.491 0.650023 119.142 1.62557 119.442 4.65382C119.505 5.16192 119.484 5.73099 119.484 5.73099V6.27974H115.187V5.36516C115.187 5.36516 115.187 4.979 115.123 4.75545C115.059 4.38961 114.717 3.57666 113.412 3.57666C112.172 3.57666 111.808 4.34897 111.702 4.75545C111.659 4.979 111.638 5.26355 111.638 5.52775V12.946C111.638 13.1492 111.638 13.3727 111.681 13.5557C111.766 14.0028 112.193 14.7345 113.433 14.7345Z" fill="#EAEAEA"/>
</g>
<defs>
<clipPath id="clip0_1_342">
<rect width="120" height="18" fill="white" transform="translate(0 0.254883)"/>
</clipPath>
</defs>
</svg>
