<svg width="123" height="33" viewBox="0 0 123 33" fill="none" xmlns="http://www.w3.org/2000/svg">
<path fill-rule="evenodd" clip-rule="evenodd" d="M15.4298 31.3414C23.7411 31.3414 30.4764 24.6077 30.4764 16.3019C30.4764 7.99607 23.7411 1.26245 15.4298 1.26245C7.11842 1.26245 0.38031 7.99607 0.38031 16.3019C0.38031 24.6077 7.11842 31.3414 15.4298 31.3414ZM7.09456 15.5103C7.11392 21.1747 11.4162 24.7005 15.5497 24.6865C20.6538 24.6699 23.6729 20.4811 23.6619 16.6569C23.648 12.8356 21.5688 10.0725 16.9874 8.9562C16.9763 8.9092 16.9681 8.80695 16.9681 8.71031C16.9598 5.82287 19.1385 3.27532 21.8758 2.70888C21.6187 2.62046 21.1957 2.58736 20.792 2.58736C17.6621 2.59841 14.2087 3.93852 11.6871 6.02189C9.10469 8.1605 7.08072 11.7663 7.09456 15.5103Z" fill="#EAEAEA"/>
<path d="M40.5296 22.5317L35.9288 11.5596H38.9342L41.8042 18.8458L44.5858 11.5596H47.4558L42.9904 22.5317H40.5296Z" fill="#EAEAEA"/>
<path d="M55.465 16.9884C55.465 16.5325 55.4125 16.0987 55.3046 15.6869C55.1996 15.2753 55.0392 14.9216 54.8263 14.626C54.6134 14.3276 54.3562 14.0927 54.0521 13.9186C53.748 13.7418 53.3913 13.6533 52.9821 13.6533C52.5729 13.6533 52.2135 13.7418 51.9121 13.9186C51.6079 14.0927 51.3481 14.3276 51.1379 14.626C50.9251 14.9216 50.7646 15.2753 50.6596 15.6869C50.5517 16.0987 50.4992 16.5325 50.4992 16.9884C50.4992 17.4609 50.5517 17.9002 50.6596 18.3036C50.7646 18.707 50.9195 19.0607 51.1241 19.3646C51.3287 19.6686 51.5886 19.909 51.9011 20.0858C52.2107 20.2598 52.5729 20.3484 52.9821 20.3484C53.3913 20.3484 53.748 20.2599 54.0521 20.0858C54.3562 19.909 54.6134 19.6686 54.8263 19.3646C55.0392 19.0607 55.1996 18.707 55.3046 18.3036C55.4125 17.9002 55.465 17.4609 55.465 16.9884ZM58.2438 17.0004C58.2438 17.7161 58.1332 18.4179 57.9148 19.1087C57.6935 19.7995 57.3673 20.4155 56.9332 20.9627C56.5019 21.5098 55.9544 21.9491 55.2936 22.2835C54.6328 22.6178 53.8614 22.7836 52.9821 22.7836C52.1001 22.7836 51.3287 22.6177 50.6707 22.2835C50.0098 21.9491 49.4624 21.5098 49.0283 20.9627C48.597 20.4155 48.2707 19.7995 48.0495 19.1087C47.831 18.4179 47.7205 17.7161 47.7205 17.0004C47.7205 16.2876 47.831 15.5912 48.0495 14.906C48.2707 14.2236 48.597 13.6129 49.0283 13.0741C49.4624 12.5353 50.0098 12.1042 50.6707 11.7782C51.3287 11.4522 52.1001 11.2864 52.9821 11.2864C53.8614 11.2864 54.63 11.4522 55.2826 11.7782C55.9351 12.1042 56.4825 12.5353 56.9221 13.0741C57.3645 13.6129 57.6935 14.2236 57.9148 14.906C58.1332 15.5912 58.2438 16.2876 58.2438 17.0004Z" fill="#EAEAEA"/>
<path d="M66.7294 13.974C66.1847 13.7613 65.6787 13.6535 65.2087 13.6535C64.7276 13.6535 64.3101 13.7475 63.9645 13.9298C63.6161 14.1121 63.3285 14.3581 63.1018 14.6703C62.8751 14.9825 62.7064 15.3334 62.5931 15.723C62.4798 16.1099 62.4217 16.5106 62.4217 16.9222C62.4217 17.3782 62.4714 17.8147 62.571 18.2347C62.6677 18.6519 62.8198 19.0194 63.0244 19.3316C63.2262 19.6439 63.4834 19.8953 63.7931 20.0859C64.1028 20.2739 64.4705 20.3705 64.8935 20.3705C65.2419 20.3705 65.5958 20.2739 65.958 20.0859C66.3202 19.8953 66.5774 19.6687 66.7295 19.4118L66.7294 13.974ZM66.9561 22.5313L66.8428 21.6913C66.5857 21.9787 66.2455 22.2329 65.8198 22.4512C65.3967 22.6721 64.8962 22.7827 64.3212 22.7827C63.5663 22.7827 62.8972 22.6225 62.3249 22.3047C61.747 21.987 61.2632 21.5615 60.8706 21.0309C60.4779 20.5005 60.1765 19.8843 59.9719 19.1852C59.7701 18.4889 59.6678 17.7595 59.6678 16.9996C59.6678 16.2868 59.7729 15.5876 59.983 14.9052C60.196 14.2227 60.5166 13.612 60.9479 13.0733C61.3821 12.5345 61.9213 12.1034 62.5738 11.7773C63.2235 11.4514 63.9894 11.2856 64.8659 11.2856C65.4409 11.2856 66.0631 11.3932 66.7295 11.6033V7.34814H69.5524V22.5313H66.9561Z" fill="#EAEAEA"/>
<path d="M77.5009 17.3865C77.1968 17.4026 76.8815 17.4308 76.5608 17.4668C76.2401 17.5055 75.9359 17.5551 75.6456 17.6159C75.0318 17.7374 74.6088 17.9447 74.371 18.2404C74.1359 18.5388 74.0171 18.8593 74.0171 19.2102C74.0171 19.5722 74.1497 19.8651 74.418 20.0862C74.6862 20.3044 75.0622 20.4149 75.5516 20.4149C75.9193 20.4149 76.276 20.3404 76.6188 20.1884C76.9617 20.0364 77.2576 19.8458 77.5009 19.6192V17.3865ZM77.7276 22.5231L77.617 21.7025C77.3101 22.0396 76.923 22.3048 76.4502 22.4955C75.9774 22.6862 75.4603 22.7829 74.8963 22.7829C74.4235 22.7829 73.9673 22.7026 73.536 22.5424C73.0992 22.3851 72.7148 22.1557 72.3802 21.86C72.0457 21.5643 71.7747 21.2024 71.5701 20.7685C71.3627 20.3348 71.2604 19.8457 71.2604 19.2987C71.2604 18.7543 71.3655 18.2708 71.5812 17.8535C71.7941 17.4363 72.0816 17.0854 72.4494 16.7953C72.8143 16.5079 73.2346 16.273 73.7074 16.0907C74.1774 15.9085 74.6751 15.7701 75.1922 15.679C75.5571 15.6044 75.958 15.549 76.3922 15.5103C76.8262 15.4717 77.1884 15.4385 77.4787 15.4081V15.2479C77.4787 14.64 77.3239 14.2089 77.0087 13.9492C76.6963 13.6923 76.2649 13.5624 75.7175 13.5624C75.3968 13.5624 75.0899 13.6011 74.7995 13.6785C74.5092 13.7531 74.2521 13.8471 74.0226 13.9603C73.7931 14.0764 73.5912 14.1896 73.4143 14.303C73.2401 14.4162 73.0992 14.5185 72.9913 14.6097L72.0567 12.6313C72.1784 12.5236 72.3636 12.3964 72.6153 12.2444C72.8669 12.0925 73.1682 11.9432 73.5277 11.7995C73.8843 11.6558 74.2853 11.5344 74.7332 11.4349C75.1811 11.3354 75.6649 11.2856 76.1792 11.2856C76.7875 11.2856 77.3433 11.3659 77.8437 11.5261C78.3441 11.6863 78.7783 11.935 79.1432 12.2777C79.5054 12.6175 79.7902 13.0485 79.9976 13.5735C80.2022 14.0957 80.3045 14.7284 80.3045 15.4717V22.5231H77.7276Z" fill="#EAEAEA"/>
<path d="M89.0333 9.85133C88.9417 9.80719 88.7644 9.74085 88.4998 9.65787C88.2309 9.57505 87.8797 9.53355 87.4377 9.53355C87.045 9.53355 86.7133 9.6524 86.4478 9.88719C86.1823 10.1221 86.0499 10.5061 86.0499 11.0366V11.5588H88.4192V13.8356H86.072V22.531H83.246V13.8356H81.7889V11.5588H83.246V10.9676C83.246 10.2547 83.3372 9.65232 83.5198 9.15772C83.7022 8.66591 83.9566 8.26249 84.2829 7.95303C84.6091 7.6408 84.9938 7.41148 85.4332 7.26779C85.8752 7.12402 86.3536 7.05225 86.8711 7.05225C87.5539 7.05225 88.118 7.1158 88.5659 7.24573C89.0138 7.37566 89.2759 7.46126 89.3506 7.50823L89.0333 9.85133Z" fill="#EAEAEA"/>
<path d="M96.734 16.9884C96.734 16.5325 96.6788 16.0987 96.5737 15.6869C96.4685 15.2753 96.3082 14.9216 96.0952 14.626C95.8823 14.3276 95.6253 14.0927 95.3216 13.9186C95.0171 13.7418 94.6608 13.6533 94.2511 13.6533C93.8422 13.6533 93.4825 13.7418 93.1814 13.9186C92.8769 14.0927 92.6173 14.3276 92.4044 14.626C92.194 14.9216 92.0337 15.2753 91.926 15.6869C91.8208 16.0987 91.7682 16.5325 91.7682 16.9884C91.7682 17.4609 91.8208 17.9002 91.926 18.3036C92.0337 18.707 92.1889 19.0607 92.3934 19.3646C92.5978 19.6686 92.8574 19.909 93.167 20.0858C93.48 20.2598 93.8422 20.3484 94.2511 20.3484C94.6608 20.3484 95.0171 20.2599 95.3216 20.0858C95.6253 19.909 95.8823 19.6686 96.0952 19.3646C96.3082 19.0607 96.4685 18.707 96.5737 18.3036C96.6788 17.9002 96.734 17.4609 96.734 16.9884ZM99.5129 17.0004C99.5129 17.7161 99.4018 18.4179 99.1813 19.1087C98.9624 19.7995 98.6367 20.4155 98.2024 20.9627C97.7706 21.5098 97.2234 21.9491 96.5626 22.2835C95.9018 22.6178 95.1307 22.7836 94.2511 22.7836C93.3689 22.7836 92.5978 22.6177 91.9395 22.2835C91.2787 21.9491 90.7316 21.5098 90.2973 20.9627C89.8663 20.4155 89.5398 19.7995 89.3184 19.1087C89.097 18.4179 88.9892 17.7161 88.9892 17.0004C88.9892 16.2876 89.097 15.5912 89.3184 14.906C89.5398 14.2236 89.8663 13.6129 90.2973 13.0741C90.7316 12.5353 91.2787 12.1042 91.9395 11.7782C92.5978 11.4522 93.3689 11.2864 94.2511 11.2864C95.1307 11.2864 95.8993 11.4522 96.5516 11.7782C97.2039 12.1042 97.7519 12.5353 98.1913 13.0741C98.6333 13.6129 98.9624 14.2236 99.1813 14.906C99.4018 15.5912 99.5129 16.2876 99.5129 17.0004Z" fill="#EAEAEA"/>
<path d="M108.277 22.5306V16.2722C108.277 15.4378 108.103 14.7912 107.755 14.3353C107.404 13.8822 106.92 13.6528 106.295 13.6528C105.855 13.6528 105.449 13.7661 105.078 13.9954C104.705 14.222 104.381 14.4734 104.108 14.747V22.5306H101.285V11.5584H103.859L103.994 12.4232C104.437 12.0613 104.932 11.7795 105.487 11.5833C106.04 11.3843 106.599 11.2876 107.16 11.2876C107.738 11.2876 108.269 11.3732 108.756 11.5473C109.243 11.7242 109.66 12.0005 110.008 12.379C110.359 12.7576 110.628 13.2522 110.818 13.8573C111.006 14.4651 111.103 15.1946 111.103 16.0428V22.5306H108.277Z" fill="#EAEAEA"/>
<path d="M119.89 15.726C119.86 15.3474 119.78 15.0158 119.649 14.7368C119.52 14.455 119.359 14.2284 119.168 14.0543C118.977 13.8775 118.773 13.7503 118.552 13.6647C118.328 13.5819 118.104 13.5404 117.875 13.5404C117.385 13.5404 116.92 13.7227 116.478 14.0875C116.036 14.4522 115.776 14.9965 115.699 15.726H119.89ZM115.632 17.7513C115.693 18.6769 115.981 19.3456 116.501 19.7546C117.017 20.1635 117.689 20.3707 118.51 20.3707C118.892 20.3707 119.251 20.3348 119.586 20.2685C119.921 20.1995 120.219 20.1137 120.479 20.006C120.739 19.9009 120.96 19.7933 121.142 19.6882C121.326 19.5806 121.46 19.481 121.555 19.3898L122.307 21.6915C122.199 21.766 122.027 21.8683 121.792 21.9982C121.557 22.1281 121.264 22.2469 120.916 22.3629C120.567 22.4762 120.156 22.5729 119.686 22.6586C119.216 22.7414 118.698 22.7829 118.137 22.7829C117.421 22.7829 116.744 22.6696 116.097 22.443C115.452 22.2136 114.885 21.86 114.402 21.382C113.915 20.9039 113.528 20.3099 113.241 19.5971C112.95 18.8841 112.806 18.0331 112.806 17.0467C112.806 16.121 112.939 15.3005 113.205 14.5876C113.47 13.8747 113.835 13.275 114.297 12.7888C114.762 12.3052 115.3 11.9322 115.914 11.6725C116.531 11.4155 117.186 11.2856 117.886 11.2856C118.585 11.2856 119.229 11.4018 119.824 11.6283C120.415 11.8549 120.927 12.2086 121.361 12.6865C121.792 13.1646 122.136 13.7835 122.384 14.5433C122.636 15.3004 122.76 16.204 122.76 17.2512V17.7513L115.632 17.7513Z" fill="#EAEAEA"/>
</svg>
