<svg width="37" height="36" viewBox="0 0 37 36" fill="none" xmlns="http://www.w3.org/2000/svg">
<g clip-path="url(#clip0_1_3014)">
<g clip-path="url(#clip1_1_3014)">
<path d="M11.2293 14.1154C12.0074 12.8747 13.0483 11.8863 14.3521 11.1503C15.6559 10.4353 17.0332 10.0779 18.4842 10.0779C19.9773 10.0779 21.3652 10.4353 22.6479 11.1503C23.9517 11.8863 24.9926 12.8747 25.7707 14.1154C26.5487 15.3561 26.9378 16.7124 26.9378 18.1844C26.9378 20.4135 26.0966 22.3376 24.4143 23.9568C22.7531 25.555 20.7764 26.3541 18.4842 26.3541C16.2131 26.3541 14.2469 25.555 12.5857 23.9568C10.9034 22.3376 10.0622 20.4135 10.0622 18.1844C10.0622 16.7124 10.4513 15.3561 11.2293 14.1154ZM26.9693 34.5237L36.9685 34.6183L37 18.1844C37 15.7241 36.5058 13.4319 35.5175 11.308C34.5502 9.24722 33.1833 7.41772 31.4169 5.81954C29.7346 4.26342 27.7579 3.06478 25.4868 2.22363C23.2157 1.38249 20.8815 0.961914 18.4842 0.961914C16.0659 0.961914 13.7317 1.393 11.4817 2.25518C9.2316 3.0753 7.2549 4.26342 5.55158 5.81954C3.82722 7.37567 2.47087 9.20516 1.48252 11.308C0.494175 13.4319 0 15.7241 0 18.1844C0 21.4439 0.851663 24.3984 2.55499 27.048C4.23728 29.6556 6.50838 31.7164 9.36829 33.2304C12.2282 34.7235 15.2668 35.47 18.4842 35.47C20.9236 35.47 23.2577 35.0389 25.4868 34.1767C25.8022 34.0716 26.2964 33.8718 26.9693 33.5774V34.5237Z" fill="#FFEE00"/>
</g>
</g>
<defs>
<clipPath id="clip0_1_3014">
<rect width="37" height="36" fill="white"/>
</clipPath>
<clipPath id="clip1_1_3014">
<rect width="37" height="36" fill="white"/>
</clipPath>
</defs>
</svg>
